<?xml version="1.0" encoding="UTF-8" standalone="no"?>
<svg
   xmlns:dc="http://purl.org/dc/elements/1.1/"
   xmlns:cc="http://creativecommons.org/ns#"
   xmlns:rdf="http://www.w3.org/1999/02/22-rdf-syntax-ns#"
   xmlns:svg="http://www.w3.org/2000/svg"
   xmlns="http://www.w3.org/2000/svg"
   xmlns:xlink="http://www.w3.org/1999/xlink"
   xmlns:sodipodi="http://sodipodi.sourceforge.net/DTD/sodipodi-0.dtd"
   xmlns:inkscape="http://www.inkscape.org/namespaces/inkscape"
   width="400"
   height="400"
   viewBox="0 0 400 400"
   version="1.1"
   id="svg2565"
   inkscape:version="1.0 (4035a4fb49, 2020-05-01)"
   sodipodi:docname="duckling.svg">
  <defs
     id="defs2559">
    <inkscape:path-effect
       simplify_just_coalesce="false"
       simplify_individual_paths="false"
       helper_size="0"
       smooth_angles="360"
       threshold="0.0074359"
       steps="1"
       lpeversion="1"
       is_visible="true"
       id="path-effect1537"
       effect="simplify" />
    <inkscape:path-effect
       simplify_just_coalesce="false"
       simplify_individual_paths="false"
       helper_size="0"
       smooth_angles="360"
       threshold="0.0074359"
       steps="1"
       lpeversion="1"
       is_visible="true"
       id="path-effect1533"
       effect="simplify" />
    <inkscape:path-effect
       simplify_just_coalesce="false"
       simplify_individual_paths="false"
       helper_size="0"
       smooth_angles="360"
       threshold="0.0074359"
       steps="1"
       lpeversion="1"
       is_visible="true"
       id="path-effect1529"
       effect="simplify" />
    <inkscape:path-effect
       simplify_just_coalesce="false"
       simplify_individual_paths="false"
       helper_size="0"
       smooth_angles="360"
       threshold="0.0074359"
       steps="1"
       lpeversion="1"
       is_visible="true"
       id="path-effect1525"
       effect="simplify" />
    <inkscape:path-effect
       simplify_just_coalesce="false"
       simplify_individual_paths="false"
       helper_size="0"
       smooth_angles="360"
       threshold="0.0074359"
       steps="1"
       lpeversion="1"
       is_visible="true"
       id="path-effect1521"
       effect="simplify" />
    <inkscape:path-effect
       simplify_just_coalesce="false"
       simplify_individual_paths="false"
       helper_size="0"
       smooth_angles="360"
       threshold="0.0074359"
       steps="1"
       lpeversion="1"
       is_visible="true"
       id="path-effect1517"
       effect="simplify" />
    <inkscape:path-effect
       simplify_just_coalesce="false"
       simplify_individual_paths="false"
       helper_size="0"
       smooth_angles="360"
       threshold="0.0074359"
       steps="1"
       lpeversion="1"
       is_visible="true"
       id="path-effect1513"
       effect="simplify" />
    <inkscape:path-effect
       simplify_just_coalesce="false"
       simplify_individual_paths="false"
       helper_size="0"
       smooth_angles="360"
       threshold="0.0074359"
       steps="1"
       lpeversion="1"
       is_visible="true"
       id="path-effect1509"
       effect="simplify" />
    <inkscape:path-effect
       simplify_just_coalesce="false"
       simplify_individual_paths="false"
       helper_size="0"
       smooth_angles="360"
       threshold="0.0074359"
       steps="1"
       lpeversion="1"
       is_visible="true"
       id="path-effect1505"
       effect="simplify" />
    <inkscape:path-effect
       simplify_just_coalesce="false"
       simplify_individual_paths="false"
       helper_size="0"
       smooth_angles="360"
       threshold="0.0074359"
       steps="1"
       lpeversion="1"
       is_visible="true"
       id="path-effect1501"
       effect="simplify" />
    <inkscape:path-effect
       simplify_just_coalesce="false"
       simplify_individual_paths="false"
       helper_size="0"
       smooth_angles="360"
       threshold="0.0074359"
       steps="1"
       lpeversion="1"
       is_visible="true"
       id="path-effect1497"
       effect="simplify" />
    <inkscape:path-effect
       simplify_just_coalesce="false"
       simplify_individual_paths="false"
       helper_size="0"
       smooth_angles="360"
       threshold="0.0074359"
       steps="1"
       lpeversion="1"
       is_visible="true"
       id="path-effect1493"
       effect="simplify" />
    <inkscape:path-effect
       simplify_just_coalesce="false"
       simplify_individual_paths="false"
       helper_size="0"
       smooth_angles="360"
       threshold="0.0074359"
       steps="1"
       lpeversion="1"
       is_visible="true"
       id="path-effect1489"
       effect="simplify" />
    <inkscape:path-effect
       simplify_just_coalesce="false"
       simplify_individual_paths="false"
       helper_size="0"
       smooth_angles="360"
       threshold="0.0074359"
       steps="1"
       lpeversion="1"
       is_visible="true"
       id="path-effect1485"
       effect="simplify" />
    <inkscape:path-effect
       simplify_just_coalesce="false"
       simplify_individual_paths="false"
       helper_size="0"
       smooth_angles="360"
       threshold="0.0074359"
       steps="1"
       lpeversion="1"
       is_visible="true"
       id="path-effect1481"
       effect="simplify" />
    <inkscape:path-effect
       simplify_just_coalesce="false"
       simplify_individual_paths="false"
       helper_size="0"
       smooth_angles="360"
       threshold="0.0074359"
       steps="1"
       lpeversion="1"
       is_visible="true"
       id="path-effect1477"
       effect="simplify" />
    <inkscape:path-effect
       simplify_just_coalesce="false"
       simplify_individual_paths="false"
       helper_size="0"
       smooth_angles="360"
       threshold="0.0074359"
       steps="1"
       lpeversion="1"
       is_visible="true"
       id="path-effect1473"
       effect="simplify" />
    <inkscape:path-effect
       simplify_just_coalesce="false"
       simplify_individual_paths="false"
       helper_size="0"
       smooth_angles="360"
       threshold="0.0074359"
       steps="1"
       lpeversion="1"
       is_visible="true"
       id="path-effect1469"
       effect="simplify" />
    <inkscape:path-effect
       simplify_just_coalesce="false"
       simplify_individual_paths="false"
       helper_size="0"
       smooth_angles="360"
       threshold="0.0074359"
       steps="1"
       lpeversion="1"
       is_visible="true"
       id="path-effect1465"
       effect="simplify" />
    <inkscape:path-effect
       simplify_just_coalesce="false"
       simplify_individual_paths="false"
       helper_size="0"
       smooth_angles="360"
       threshold="0.0074359"
       steps="1"
       lpeversion="1"
       is_visible="true"
       id="path-effect1461"
       effect="simplify" />
    <inkscape:path-effect
       simplify_just_coalesce="false"
       simplify_individual_paths="false"
       helper_size="0"
       smooth_angles="360"
       threshold="0.0074359"
       steps="1"
       lpeversion="1"
       is_visible="true"
       id="path-effect1457"
       effect="simplify" />
    <inkscape:path-effect
       simplify_just_coalesce="false"
       simplify_individual_paths="false"
       helper_size="0"
       smooth_angles="360"
       threshold="0.0074359"
       steps="1"
       lpeversion="1"
       is_visible="true"
       id="path-effect1453"
       effect="simplify" />
    <inkscape:path-effect
       simplify_just_coalesce="false"
       simplify_individual_paths="false"
       helper_size="0"
       smooth_angles="360"
       threshold="0.0074359"
       steps="1"
       lpeversion="1"
       is_visible="true"
       id="path-effect1449"
       effect="simplify" />
    <inkscape:path-effect
       simplify_just_coalesce="false"
       simplify_individual_paths="false"
       helper_size="0"
       smooth_angles="360"
       threshold="0.0074359"
       steps="1"
       lpeversion="1"
       is_visible="true"
       id="path-effect1445"
       effect="simplify" />
    <inkscape:path-effect
       simplify_just_coalesce="false"
       simplify_individual_paths="false"
       helper_size="0"
       smooth_angles="360"
       threshold="0.0074359"
       steps="1"
       lpeversion="1"
       is_visible="true"
       id="path-effect1441"
       effect="simplify" />
    <inkscape:path-effect
       simplify_just_coalesce="false"
       simplify_individual_paths="false"
       helper_size="0"
       smooth_angles="360"
       threshold="0.0074359"
       steps="1"
       lpeversion="1"
       is_visible="true"
       id="path-effect1437"
       effect="simplify" />
    <inkscape:path-effect
       simplify_just_coalesce="false"
       simplify_individual_paths="false"
       helper_size="0"
       smooth_angles="360"
       threshold="0.0074359"
       steps="1"
       lpeversion="1"
       is_visible="true"
       id="path-effect1433"
       effect="simplify" />
    <inkscape:path-effect
       simplify_just_coalesce="false"
       simplify_individual_paths="false"
       helper_size="0"
       smooth_angles="360"
       threshold="0.0074359"
       steps="1"
       lpeversion="1"
       is_visible="true"
       id="path-effect1429"
       effect="simplify" />
    <linearGradient
       inkscape:collect="always"
       id="linearGradient3234">
      <stop
         style="stop-color:#ffb6c1;stop-opacity:1;"
         offset="0"
         id="stop3230" />
      <stop
         style="stop-color:#ffb6c1;stop-opacity:0;"
         offset="1"
         id="stop3232" />
    </linearGradient>
    <linearGradient
       inkscape:collect="always"
       xlink:href="#linearGradient3234"
       id="linearGradient3236"
       x1="211.12189"
       y1="-11.616747"
       x2="203.04066"
       y2="339.91635"
       gradientUnits="userSpaceOnUse"
       gradientTransform="matrix(0.77283951,0,0,0.77283951,35.976397,13.044685)" />
  </defs>
  <sodipodi:namedview
     id="base"
     pagecolor="#ffffff"
     bordercolor="#666666"
     borderopacity="1.0"
     inkscape:pageopacity="0.0"
     inkscape:pageshadow="2"
     inkscape:zoom="0.98994949"
     inkscape:cx="89.59249"
     inkscape:cy="253.36463"
     inkscape:document-units="mm"
     inkscape:current-layer="layer8"
     inkscape:document-rotation="0"
     showgrid="false"
     units="px"
     showguides="true"
     inkscape:guide-bbox="true"
     inkscape:snap-intersection-paths="false"
     inkscape:snap-center="true"
     inkscape:object-nodes="false"
     inkscape:snap-nodes="false"
     inkscape:window-width="1920"
     inkscape:window-height="1001"
     inkscape:window-x="-9"
     inkscape:window-y="-9"
     inkscape:window-maximized="1">
    <sodipodi:guide
       position="-43.832202,1.2338682"
       orientation="0,-1"
       id="guide2585" />
    <sodipodi:guide
       position="187.53258,-109.4693"
       orientation="1,0"
       id="guide3282" />
  </sodipodi:namedview>
  <metadata
     id="metadata2562">
    <rdf:RDF>
      <cc:Work
         rdf:about="">
        <dc:format>image/svg+xml</dc:format>
        <dc:type
           rdf:resource="http://purl.org/dc/dcmitype/StillImage" />
        <dc:title />
      </cc:Work>
    </rdf:RDF>
  </metadata>
  <!--Hintergrund-->
  <g
     style="display:inline"
     inkscape:groupmode="layer"
     id="layer8"
     inkscape:label="Hintergrund">
    <rect
       style="fill:url(#linearGradient3236);fill-opacity:1;stroke:none;stroke-width:11.6839;stroke-opacity:0.470238"
       id="rect3220"
       width="482.46384"
       height="316.17776"
       x="-55.363846"
       y="-18.182745" />
  </g>
  <!--hinterste Welle-->
  <g
     inkscape:label="hinterste Welle"
     inkscape:groupmode="layer"
     id="layer1">
    <path
       sodipodi:type="star"
       style="fill:#0d5c75;stroke:none;stroke-width:5.01431;stroke-opacity:0.470238;fill-opacity:1"
       id="path2579"
       sodipodi:sides="20"
       sodipodi:cx="187.53259"
       sodipodi:cy="509.46929"
       sodipodi:r1="312.14243"
       sodipodi:r2="308.29941"
       sodipodi:arg1="0.3597757"
       sodipodi:arg2="0.51685533"
       inkscape:flatsided="true"
       inkscape:rounded="0"
       inkscape:randomized="0"
       d="m 479.69035,619.3635 -48.25839,84.90311 -72.13297,65.83499 -88.94665,40.32249 -97.05363,10.86293 -95.660323,-19.65996 -84.9031076,-48.2584 -65.8349894,-72.13296 -40.32248,-88.94666 -10.86294,-97.05363 19.65996,-95.66032 48.258397,-84.9031 72.132965,-65.83499 88.946658,-40.32249 97.05363,-10.86293 95.66032,19.65996 84.90311,48.25839 65.83499,72.13297 40.32248,88.94666 10.86293,97.05363 z"
       inkscape:transform-center-y="-3.9463291e-06" />
       <animateTransform attributeName="transform" type="rotate" from="0 187.53259 509.46929" to="0 187.53259 509.46929" dur="7s" repeatCount="indefinite"/>
  </g>
  <!--Ente Ball und Sonne-->
  <g
     inkscape:groupmode="layer"
     id="layer6"
     inkscape:label="ente">
    <ellipse
       style="fill:#cd853f;stroke:none;stroke-width:2.45277;stroke-opacity:0.470238"
       id="path2591"
       cx="246.86865"
       cy="201.62845"
       rx="0.95283443"
       ry="0.22550954" />
    <g
       transform="translate(487.20976,126.33576)"
       id="g923">
      <circle
         cy="139.67702"
         cx="-142.5"
         id="ellipse884"
         style="fill:#ff0000;fill-opacity:1;stroke-width:13.9349;stroke-opacity:0.470238"
         r="34.015747" />
      <g
         id="g916"
         transform="translate(101.32936,-40.234058)"
         style="fill:#ffffff;fill-opacity:1">
        <path
           d="m -244.30441,145.8976 a 34.015747,34.015747 0 0 0 -0.2207,0.006 34.015747,34.015747 0 0 1 0.36914,-0.006 34.015747,34.015747 0 0 0 -0.14844,0 z m 0.8086,0 a 34.015747,34.015747 0 0 1 0.36523,0.006 34.015747,34.015747 0 0 0 -0.36523,-0.006 z m -1.60742,0.0215 a 34.015747,34.015747 0 0 0 -0.30274,0.0117 34.015747,34.015747 0 0 1 0.30274,-0.0117 z m 3.58007,0.0566 a 34.015747,34.015747 0 0 1 0.27344,0.0195 34.015747,34.015747 0 0 0 -0.27344,-0.0195 z m 0.89258,0.0723 a 34.015747,34.015747 0 0 1 0.4375,0.043 34.015747,34.015747 0 0 0 -0.4375,-0.043 z m 0.51172,0.0508 a 34.015747,34.015747 0 0 1 0.38086,0.0449 34.015747,34.015747 0 0 0 -0.38086,-0.0449 z m 0.52734,0.0625 a 34.015747,34.015747 0 0 1 0.41016,0.0547 34.015747,34.015747 0 0 0 -0.41016,-0.0547 z m 0.41016,0.0547 a 34.015747,34.015747 0 0 1 0.48438,0.0703 34.015747,34.015747 0 0 0 -0.48438,-0.0703 z m 0.48438,0.0703 a 34.015747,34.015747 0 0 1 0.46093,0.0742 34.015747,34.015747 0 0 0 -0.46093,-0.0742 z m -9.41407,-0.12109 a 34.015747,34.015747 0 0 0 -0.35937,0.0469 34.015747,34.015747 0 0 1 0.35937,-0.0469 z m -0.35937,0.0469 a 34.015747,34.015747 0 0 0 -0.4707,0.0684 34.015747,34.015747 0 0 1 0.4707,-0.0684 z m -1.07031,0.16407 a 34.015747,34.015747 0 0 0 -0.38282,0.0684 34.015747,34.015747 0 0 1 0.38282,-0.0684 z m -0.38282,0.0684 a 34.015747,34.015747 0 0 0 -0.35547,0.0664 34.015747,34.015747 0 0 1 0.35547,-0.0664 z m 12.73438,0.10742 a 34.015747,34.015747 0 0 1 0.33984,0.0684 34.015747,34.015747 0 0 0 -0.33984,-0.0684 z m 1.41992,0.31445 a 34.015747,34.015747 0 0 1 0.38867,0.0977 34.015747,34.015747 0 0 0 -0.38867,-0.0977 z m -16.65234,0.12891 a 34.015747,34.015747 0 0 0 -0.3711,0.0996 34.015747,34.015747 0 0 1 0.3711,-0.0996 z m -0.3711,0.0996 a 34.015747,34.015747 0 0 0 -0.47265,0.13281 34.015747,34.015747 0 0 1 0.47265,-0.13281 z m -1.42578,0.42383 a 34.015747,34.015747 0 0 0 -0.41015,0.13281 34.015747,34.015747 0 0 1 0.41015,-0.13281 z m 20.78321,0.008 a 34.015747,34.015747 0 0 1 0.38085,0.12304 34.015747,34.015747 0 0 0 -0.38085,-0.12304 z m -21.26563,0.14844 a 34.015747,34.015747 0 0 0 -0.43164,0.15039 34.015747,34.015747 0 0 1 0.43164,-0.15039 z m -0.43164,0.15039 a 34.015747,34.015747 0 0 0 -0.44727,0.16015 34.015747,34.015747 0 0 1 0.44727,-0.16015 z m 22.21875,-0.12891 a 34.015747,34.015747 0 0 1 0.32226,0.11328 34.015747,34.015747 0 0 0 -0.32226,-0.11328 z m -25.02539,1.25977 a 34.015747,34.015747 0 0 0 -0.29883,0.13671 34.015747,34.015747 0 0 1 0.29883,-0.13671 z m 28.67578,0.2207 a 34.015747,34.015747 0 0 1 0.25391,0.12109 34.015747,34.015747 0 0 0 -0.25391,-0.12109 z m -30.41797,0.63281 a 34.015747,34.015747 0 0 0 -0.37695,0.20117 34.015747,34.015747 0 0 1 0.37695,-0.20117 z m 32.84961,0.64258 -17.00781,29.45898 h 34.01562 a 34.015747,34.015747 0 0 0 -17.00781,-29.45898 z m -35.01367,0.59961 a 34.015747,34.015747 0 0 0 -0.32031,0.20117 34.015747,34.015747 0 0 1 0.32031,-0.20117 z m -0.32813,0.20703 a 34.015747,34.015747 0 0 0 -0.33593,0.21875 34.015747,34.015747 0 0 1 0.33593,-0.21875 z m -0.81445,0.53906 a 34.015747,34.015747 0 0 0 -0.30273,0.20703 34.015747,34.015747 0 0 1 0.30273,-0.20703 z m -2.04492,1.50782 a 34.015747,34.015747 0 0 0 -0.3125,0.25195 34.015747,34.015747 0 0 1 0.3125,-0.25195 z m -2.90625,2.5996 a 34.015747,34.015747 0 0 0 -0.22461,0.22852 34.015747,34.015747 0 0 1 0.22461,-0.22852 z m -0.22461,0.22852 a 34.015747,34.015747 0 0 0 -0.33984,0.35352 34.015747,34.015747 0 0 1 0.33984,-0.35352 z m -1.05859,1.13477 a 34.015747,34.015747 0 0 0 -0.25391,0.28515 34.015747,34.015747 0 0 1 0.25391,-0.28515 z m -3.76563,5.10937 a 34.015747,34.015747 0 0 0 -0.21875,0.36914 34.015747,34.015747 0 0 1 0.21875,-0.36914 z m -0.5,0.86133 a 34.015747,34.015747 0 0 0 -0.20117,0.36133 34.015747,34.015747 0 0 1 0.20117,-0.36133 z m -0.44922,0.82422 a 34.015747,34.015747 0 0 0 -0.19922,0.38086 34.015747,34.015747 0 0 1 0.19922,-0.38086 z m -0.23828,0.45703 a 34.015747,34.015747 0 0 0 -0.19141,0.38672 34.015747,34.015747 0 0 1 0.19141,-0.38672 z m -2.19726,5.46289 a 34.015747,34.015747 0 0 0 -0.1211,0.40234 34.015747,34.015747 0 0 1 0.1211,-0.40234 z m -0.1211,0.40234 a 34.015747,34.015747 0 0 0 -0.13476,0.47266 34.015747,34.015747 0 0 1 0.13476,-0.47266 z m -0.13476,0.47266 a 34.015747,34.015747 0 0 0 -0.11133,0.41406 34.015747,34.015747 0 0 1 0.11133,-0.41406 z m -0.5879,2.49609 a 34.015747,34.015747 0 0 0 -0.0703,0.36914 34.015747,34.015747 0 0 1 0.0703,-0.36914 z m -0.0703,0.36914 a 34.015747,34.015747 0 0 0 -0.0859,0.48438 34.015747,34.015747 0 0 1 0.0859,-0.48438 z m -0.41992,3.01563 a 34.015747,34.015747 0 0 0 -0.0332,0.38672 34.015747,34.015747 0 0 1 0.0332,-0.38672 z m -0.0332,0.38672 a 34.015747,34.015747 0 0 0 -0.0371,0.48828 34.015747,34.015747 0 0 1 0.0371,-0.48828 z m -0.0371,0.48828 a 34.015747,34.015747 0 0 0 -0.0293,0.49023 34.015747,34.015747 0 0 1 0.0293,-0.49023 z m -0.0293,0.49023 a 34.015747,34.015747 0 0 0 -0.0215,0.46289 34.015747,34.015747 0 0 1 0.0215,-0.46289 z m -0.0254,0.57227 a 34.015747,34.015747 0 0 0 -0.0117,0.33789 34.015747,34.015747 0 0 1 0.0117,-0.33789 z m 0.0215,2.96289 a 34.015747,34.015747 0 0 0 0.0215,0.38672 34.015747,34.015747 0 0 1 -0.0215,-0.38672 z m 0.0215,0.38672 a 34.015747,34.015747 0 0 0 0.0293,0.42969 34.015747,34.015747 0 0 1 -0.0293,-0.42969 z m 0.0859,1.08984 a 34.015747,34.015747 0 0 0 0.0371,0.375 34.015747,34.015747 0 0 1 -0.0371,-0.375 z m 0.0371,0.375 a 34.015747,34.015747 0 0 0 0.0469,0.41797 34.015747,34.015747 0 0 1 -0.0469,-0.41797 z m 0.64843,3.91797 a 34.015747,34.015747 0 0 0 0.0996,0.42969 34.015747,34.015747 0 0 1 -0.0996,-0.42969 z m 0.0996,0.42969 a 34.015747,34.015747 0 0 0 0.10547,0.42773 34.015747,34.015747 0 0 1 -0.10547,-0.42773 z m 0.40235,1.52344 a 34.015747,34.015747 0 0 0 0.10937,0.36914 34.015747,34.015747 0 0 1 -0.10937,-0.36914 z m 0.10937,0.36914 a 34.015747,34.015747 0 0 0 0.12891,0.41992 34.015747,34.015747 0 0 1 -0.12891,-0.41992 z m 2.17774,5.46093 a 34.015747,34.015747 0 0 0 0.2207,0.43164 34.015747,34.015747 0 0 1 -0.2207,-0.43164 z m 0.22656,0.44141 a 34.015747,34.015747 0 0 0 0.22656,0.42773 34.015747,34.015747 0 0 1 -0.22656,-0.42773 z m 0.75586,1.37305 a 34.015747,34.015747 0 0 0 0.14453,0.24609 34.015747,34.015747 0 0 1 -0.14453,-0.24609 z m 2.72656,4.0039 a 34.015747,34.015747 0 0 0 0.21289,0.26563 34.015747,34.015747 0 0 1 -0.21289,-0.26563 z m 1.86523,2.16407 a 34.015747,34.015747 0 0 0 0.29297,0.30859 34.015747,34.015747 0 0 1 -0.29297,-0.30859 z m 1.75782,1.74414 a 34.015747,34.015747 0 0 0 0.29687,0.26953 34.015747,34.015747 0 0 1 -0.29687,-0.26953 z m 4.98828,3.81054 a 34.015747,34.015747 0 0 0 0.41601,0.25782 34.015747,34.015747 0 0 1 -0.41601,-0.25782 z m 1.6914,0.99414 a 34.015747,34.015747 0 0 0 0.42969,0.23243 34.015747,34.015747 0 0 1 -0.42969,-0.23243 z m 1.89649,0.96485 a 34.015747,34.015747 0 0 0 0.29297,0.13672 34.015747,34.015747 0 0 1 -0.29297,-0.13672 z m 3.94531,1.56445 a 34.015747,34.015747 0 0 0 0.4668,0.14844 34.015747,34.015747 0 0 1 -0.4668,-0.14844 z m 17.43164,0.9668 a 34.015747,34.015747 0 0 1 -0.43164,0.0859 34.015747,34.015747 0 0 0 0.43164,-0.0859 z m -2.90429,0.4707 a 34.015747,34.015747 0 0 1 -0.37696,0.043 34.015747,34.015747 0 0 0 0.37696,-0.043 z m -7.26368,0.0781 a 34.015747,34.015747 0 0 0 0.41016,0.0371 34.015747,34.015747 0 0 1 -0.41016,-0.0371 z m 0.41016,0.0371 a 34.015747,34.015747 0 0 0 0.48828,0.0371 34.015747,34.015747 0 0 1 -0.48828,-0.0371 z m 0.48828,0.0371 a 34.015747,34.015747 0 0 0 0.48047,0.0312 34.015747,34.015747 0 0 1 -0.48047,-0.0312 z m 5.38867,-0.0508 a 34.015747,34.015747 0 0 1 -0.25,0.0215 34.015747,34.015747 0 0 0 0.25,-0.0215 z m -0.97656,0.0723 a 34.015747,34.015747 0 0 1 -0.35937,0.0195 34.015747,34.015747 0 0 0 0.35937,-0.0195 z m -0.98047,0.0449 a 34.015747,34.015747 0 0 1 -0.46289,0.0117 34.015747,34.015747 0 0 0 0.46289,-0.0117 z m -1.86133,0.008 a 34.015747,34.015747 0 0 0 0.39063,0.006 34.015747,34.015747 0 0 1 -0.39063,-0.006 z"
           style="fill:#ffffff;fill-opacity:1;stroke-width:15.1181;stroke-opacity:0.470238"
           id="path896" />
        <path
           id="path909"
           style="fill:#ffffff;fill-opacity:1;stroke-width:15.1181;stroke-opacity:0.470238"
           d="m -214.02425,196.29645 a 34.015747,34.015747 0 0 0 0.10377,-0.19487 34.015747,34.015747 0 0 1 -0.17706,0.32396 34.015747,34.015747 0 0 0 0.0733,-0.12909 z m -0.39928,0.70315 a 34.015747,34.015747 0 0 1 -0.18556,0.31463 34.015747,34.015747 0 0 0 0.18556,-0.31463 z m 0.77504,-1.4084 a 34.015747,34.015747 0 0 0 0.13931,-0.26904 34.015747,34.015747 0 0 1 -0.13931,0.26904 z m -1.81702,3.08521 a 34.015747,34.015747 0 0 1 -0.15198,0.22815 34.015747,34.015747 0 0 0 0.15198,-0.22815 z m -0.50362,0.74047 a 34.015747,34.015747 0 0 1 -0.25343,0.35921 34.015747,34.015747 0 0 0 0.25343,-0.35921 z m -0.29686,0.4199 a 34.015747,34.015747 0 0 1 -0.22711,0.30902 34.015747,34.015747 0 0 0 0.22711,-0.30902 z m -0.31474,0.4277 a 34.015747,34.015747 0 0 1 -0.2501,0.32966 34.015747,34.015747 0 0 0 0.2501,-0.32966 z m -0.2501,0.32966 a 34.015747,34.015747 0 0 1 -0.30032,0.38649 34.015747,34.015747 0 0 0 0.30032,-0.38649 z m -0.30032,0.38649 a 34.015747,34.015747 0 0 1 -0.29212,0.36418 34.015747,34.015747 0 0 0 0.29212,-0.36418 z m 4.75388,-8.1265 a 34.015747,34.015747 0 0 0 0.13667,-0.33566 34.015747,34.015747 0 0 1 -0.13667,0.33566 z m 0.13667,-0.33566 a 34.015747,34.015747 0 0 0 0.17294,-0.44309 34.015747,34.015747 0 0 1 -0.17294,0.44309 z m 0.38583,-1.01174 a 34.015747,34.015747 0 0 0 0.12956,-0.36667 34.015747,34.015747 0 0 1 -0.12956,0.36667 z m 0.12956,-0.36667 a 34.015747,34.015747 0 0 0 0.11778,-0.34189 34.015747,34.015747 0 0 1 -0.11778,0.34189 z m -6.38153,11.02054 a 34.015747,34.015747 0 0 1 -0.22728,0.26174 34.015747,34.015747 0 0 0 0.22728,-0.26174 z m -0.97458,1.07946 a 34.015747,34.015747 0 0 1 -0.27688,0.28974 34.015747,34.015747 0 0 0 0.27688,-0.28974 z m 8.11066,-14.54422 a 34.015747,34.015747 0 0 0 0.0966,-0.37188 34.015747,34.015747 0 0 1 -0.0966,0.37188 z m 0.0966,-0.37188 a 34.015747,34.015747 0 0 0 0.1179,-0.47659 34.015747,34.015747 0 0 1 -0.1179,0.47659 z m 0.33548,-1.44911 a 34.015747,34.015747 0 0 0 0.087,-0.42224 34.015747,34.015747 0 0 1 -0.087,0.42224 z m -10.2695,18.06873 a 34.015747,34.015747 0 0 1 -0.29505,0.27043 34.015747,34.015747 0 0 0 0.29505,-0.27043 z m 10.37168,-18.56548 a 34.015747,34.015747 0 0 0 0.0824,-0.44961 34.015747,34.015747 0 0 1 -0.0824,0.44961 z m 0.0824,-0.44961 a 34.015747,34.015747 0 0 0 0.0816,-0.46802 34.015747,34.015747 0 0 1 -0.0816,0.46802 z m -10.8593,19.38466 a 34.015747,34.015747 0 0 1 -0.25763,0.22429 34.015747,34.015747 0 0 0 0.25763,-0.22429 z m 11.26182,-22.38367 a 34.015747,34.015747 0 0 0 0.0287,-0.32736 34.015747,34.015747 0 0 1 -0.0287,0.32736 z m -14.35173,24.82694 a 34.015747,34.015747 0 0 1 -0.23068,0.161 34.015747,34.015747 0 0 0 0.23068,-0.161 z m 14.46981,-26.76337 a 34.015747,34.015747 0 0 0 0.0112,-0.42713 34.015747,34.015747 0 0 1 -0.0112,0.42713 z m -16.77959,28.2481 -17.21868,-29.33622 -16.79658,29.57934 a 34.015747,34.015747 0 0 0 34.01526,-0.24312 z m 16.76799,-30.74331 a 34.015747,34.015747 0 0 0 -0.0168,-0.37787 34.015747,34.015747 0 0 1 0.0168,0.37787 z m -0.018,-0.38756 a 34.015747,34.015747 0 0 0 -0.0243,-0.40014 34.015747,34.015747 0 0 1 0.0243,0.40014 z m -0.0666,-0.97442 a 34.015747,34.015747 0 0 0 -0.0305,-0.36547 34.015747,34.015747 0 0 1 0.0305,0.36547 z m -0.30141,-2.52277 a 34.015747,34.015747 0 0 0 -0.0648,-0.39615 34.015747,34.015747 0 0 1 0.0648,0.39615 z m -0.82548,-3.81087 a 34.015747,34.015747 0 0 0 -0.0878,-0.30816 34.015747,34.015747 0 0 1 0.0878,0.30816 z m -0.0878,-0.30816 a 34.015747,34.015747 0 0 0 -0.1396,-0.47008 34.015747,34.015747 0 0 1 0.1396,0.47008 z m -0.46405,-1.48087 a 34.015747,34.015747 0 0 0 -0.12259,-0.3616 34.015747,34.015747 0 0 1 0.12259,0.3616 z m -2.58358,-5.79748 a 34.015747,34.015747 0 0 0 -0.21298,-0.37249 34.015747,34.015747 0 0 1 0.21298,0.37249 z m -0.50211,-0.8601 a 34.015747,34.015747 0 0 0 -0.21487,-0.35336 34.015747,34.015747 0 0 1 0.21487,0.35336 z m -0.4949,-0.79763 a 34.015747,34.015747 0 0 0 -0.23282,-0.3613 34.015747,34.015747 0 0 1 0.23282,0.3613 z m -0.27977,-0.43288 a 34.015747,34.015747 0 0 0 -0.24176,-0.3574 34.015747,34.015747 0 0 1 0.24176,0.3574 z m -3.66544,-4.60821 a 34.015747,34.015747 0 0 0 -0.29007,-0.30398 34.015747,34.015747 0 0 1 0.29007,0.30398 z m -0.29007,-0.30398 a 34.015747,34.015747 0 0 0 -0.34447,-0.35058 34.015747,34.015747 0 0 1 0.34447,0.35058 z m -0.34447,-0.35058 a 34.015747,34.015747 0 0 0 -0.30508,-0.30127 34.015747,34.015747 0 0 1 0.30508,0.30127 z m -1.88025,-1.74377 a 34.015747,34.015747 0 0 0 -0.28629,-0.24341 34.015747,34.015747 0 0 1 0.28629,0.24341 z m -0.28629,-0.24341 a 34.015747,34.015747 0 0 0 -0.37879,-0.31388 34.015747,34.015747 0 0 1 0.37879,0.31388 z m -2.41498,-1.85424 a 34.015747,34.015747 0 0 0 -0.31989,-0.21983 34.015747,34.015747 0 0 1 0.31989,0.21983 z m -0.31989,-0.21983 a 34.015747,34.015747 0 0 0 -0.40628,-0.27337 34.015747,34.015747 0 0 1 0.40628,0.27337 z m -0.40628,-0.27337 a 34.015747,34.015747 0 0 0 -0.41183,-0.26755 34.015747,34.015747 0 0 1 0.41183,0.26755 z m -0.41183,-0.26755 a 34.015747,34.015747 0 0 0 -0.3919,-0.24727 34.015747,34.015747 0 0 1 0.3919,0.24727 z m -0.48509,-0.30467 a 34.015747,34.015747 0 0 0 -0.28804,-0.17702 34.015747,34.015747 0 0 1 0.28804,0.17702 z m -2.58709,-1.44435 a 34.015747,34.015747 0 0 0 -0.3469,-0.17226 34.015747,34.015747 0 0 1 0.3469,0.17226 z m -0.3469,-0.17226 a 34.015747,34.015747 0 0 0 -0.38812,-0.1867 34.015747,34.015747 0 0 1 0.38812,0.1867 z m -0.99012,-0.46346 a 34.015747,34.015747 0 0 0 -0.34441,-0.15291 34.015747,34.015747 0 0 1 0.34441,0.15291 z m -0.34441,-0.15291 a 34.015747,34.015747 0 0 0 -0.38662,-0.1656 34.015747,34.015747 0 0 1 0.38662,0.1656 z m -3.72718,-1.37079 a 34.015747,34.015747 0 0 0 -0.42284,-0.12557 34.015747,34.015747 0 0 1 0.42284,0.12557 z m -0.42284,-0.12557 a 34.015747,34.015747 0 0 0 -0.42402,-0.11949 34.015747,34.015747 0 0 1 0.42402,0.11949 z m -1.52343,-0.40238 a 34.015747,34.015747 0 0 0 -0.375,-0.0872 34.015747,34.015747 0 0 1 0.375,0.0872 z m -0.375,-0.0872 a 34.015747,34.015747 0 0 0 -0.42881,-0.0953 34.015747,34.015747 0 0 1 0.42881,0.0953 z m -5.82407,-0.80283 a 34.015747,34.015747 0 0 0 -0.48432,-0.0212 34.015747,34.015747 0 0 1 0.48432,0.0212 z m -0.49571,-0.0209 a 34.015747,34.015747 0 0 0 -0.48382,-0.0142 34.015747,34.015747 0 0 1 0.48382,0.0142 z m -1.56722,-0.0207 a 34.015747,34.015747 0 0 0 -0.28536,0.004 34.015747,34.015747 0 0 1 0.28536,-0.004 z m -4.82806,0.39388 a 34.015747,34.015747 0 0 0 -0.33611,0.054 34.015747,34.015747 0 0 1 0.33611,-0.054 z m -2.80287,0.55337 a 34.015747,34.015747 0 0 0 -0.41301,0.10238 34.015747,34.015747 0 0 1 0.41301,-0.10238 z m -2.38466,0.66733 a 34.015747,34.015747 0 0 0 -0.38097,0.12506 34.015747,34.015747 0 0 1 0.38097,-0.12506 z m -5.77674,2.45611 a 34.015747,34.015747 0 0 0 -0.42962,0.23444 34.015747,34.015747 0 0 1 0.42962,-0.23444 z m -1.69968,0.97991 a 34.015747,34.015747 0 0 0 -0.4143,0.25888 34.015747,34.015747 0 0 1 0.4143,-0.25888 z m -1.77549,1.17272 a 34.015747,34.015747 0 0 0 -0.26355,0.18725 34.015747,34.015747 0 0 1 0.26355,-0.18725 z m -3.30857,2.65826 a 34.015747,34.015747 0 0 0 -0.35958,0.33262 34.015747,34.015747 0 0 1 0.35958,-0.33262 z m -9.44828,14.68082 a 34.015747,34.015747 0 0 1 0.13844,-0.41776 34.015747,34.015747 0 0 0 -0.13844,0.41776 z m 1.0248,-2.75794 a 34.015747,34.015747 0 0 1 0.14875,-0.34903 34.015747,34.015747 0 0 0 -0.14875,0.34903 z m 3.51882,-6.35492 a 34.015747,34.015747 0 0 0 -0.2348,0.33835 34.015747,34.015747 0 0 1 0.2348,-0.33835 z m -0.2348,0.33835 a 34.015747,34.015747 0 0 0 -0.27337,0.40627 34.015747,34.015747 0 0 1 0.27337,-0.40627 z m -0.27337,0.40627 a 34.015747,34.015747 0 0 0 -0.26438,0.40241 34.015747,34.015747 0 0 1 0.26438,-0.40241 z m -2.61669,4.71098 a 34.015747,34.015747 0 0 1 0.10475,-0.22802 34.015747,34.015747 0 0 0 -0.10475,0.22802 z m 0.41934,-0.8849 a 34.015747,34.015747 0 0 1 0.1605,-0.32213 34.015747,34.015747 0 0 0 -0.1605,0.32213 z m 0.4451,-0.87477 a 34.015747,34.015747 0 0 1 0.2184,-0.4083 34.015747,34.015747 0 0 0 -0.2184,0.4083 z m 0.91215,-1.62253 a 34.015747,34.015747 0 0 0 -0.1981,0.33672 34.015747,34.015747 0 0 1 0.1981,-0.33672 z" />
        <path
           id="path911"
           style="fill:#ffffff;fill-opacity:1;stroke-width:15.1181;stroke-opacity:0.470238"
           d="m -273.49659,196.56027 a 34.015747,34.015747 0 0 0 0.11063,0.19107 34.015747,34.015747 0 0 1 -0.18149,-0.3215 34.015747,34.015747 0 0 0 0.0709,0.13043 z m -0.38598,-0.71052 a 34.015747,34.015747 0 0 1 -0.16907,-0.3238 34.015747,34.015747 0 0 0 0.16907,0.3238 z m 0.78619,1.40219 a 34.015747,34.015747 0 0 0 0.1548,0.26044 34.015747,34.015747 0 0 1 -0.1548,-0.26044 z m -1.65921,-3.17287 a 34.015747,34.015747 0 0 1 -0.11339,-0.24958 34.015747,34.015747 0 0 0 0.11339,0.24958 z m -0.36255,-0.81883 a 34.015747,34.015747 0 0 1 -0.17105,-0.40496 34.015747,34.015747 0 0 0 0.17105,0.40496 z m -0.19963,-0.47391 a 34.015747,34.015747 0 0 1 -0.14235,-0.3561 34.015747,34.015747 0 0 0 0.14235,0.3561 z m -0.1968,-0.49321 a 34.015747,34.015747 0 0 1 -0.14773,-0.38652 34.015747,34.015747 0 0 0 0.14773,0.38652 z m -0.14773,-0.38652 a 34.015747,34.015747 0 0 1 -0.16944,-0.45919 34.015747,34.015747 0 0 0 0.16944,0.45919 z m -0.16944,-0.45919 a 34.015747,34.015747 0 0 1 -0.15483,-0.44045 34.015747,34.015747 0 0 0 0.15483,0.44045 z m 4.38741,8.33006 a 34.015747,34.015747 0 0 0 0.21276,0.2934 34.015747,34.015747 0 0 1 -0.21276,-0.2934 z m 0.21276,0.2934 a 34.015747,34.015747 0 0 0 0.28479,0.38096 34.015747,34.015747 0 0 1 -0.28479,-0.38096 z m 0.65508,0.86217 a 34.015747,34.015747 0 0 0 0.24284,0.30374 34.015747,34.015747 0 0 1 -0.24284,-0.30374 z m 0.24284,0.30374 a 34.015747,34.015747 0 0 0 0.22803,0.28066 34.015747,34.015747 0 0 1 -0.22803,-0.28066 z m -5.98438,-11.24114 a 34.015747,34.015747 0 0 1 -0.10211,-0.33127 34.015747,34.015747 0 0 0 0.10211,0.33127 z m -0.40148,-1.3978 a 34.015747,34.015747 0 0 1 -0.0997,-0.38817 34.015747,34.015747 0 0 0 0.0997,0.38817 z m 8.06228,14.57108 a 34.015747,34.015747 0 0 0 0.26467,0.27855 34.015747,34.015747 0 0 1 -0.26467,-0.27855 z m 0.26467,0.27855 a 34.015747,34.015747 0 0 0 0.34232,0.35193 34.015747,34.015747 0 0 1 -0.34232,-0.35193 z m 1.05302,1.05054 a 34.015747,34.015747 0 0 0 0.31249,0.297 34.015747,34.015747 0 0 1 -0.31249,-0.297 z m -9.91386,-18.26629 a 34.015747,34.015747 0 0 1 -0.0737,-0.39339 34.015747,34.015747 0 0 0 0.0737,0.39339 z m 10.28161,18.61552 a 34.015747,34.015747 0 0 0 0.33819,0.3075 34.015747,34.015747 0 0 1 -0.33819,-0.3075 z m 0.33819,0.3075 a 34.015747,34.015747 0 0 0 0.35423,0.31657 34.015747,34.015747 0 0 1 -0.35423,-0.31657 z m -10.71942,-19.46237 a 34.015747,34.015747 0 0 1 -0.0543,-0.33724 34.015747,34.015747 0 0 0 0.0543,0.33724 z m 13.05288,21.38878 a 34.015747,34.015747 0 0 0 0.26277,0.19733 34.015747,34.015747 0 0 1 -0.26277,-0.19733 z m -13.49449,-25.30312 a 34.015747,34.015747 0 0 1 -0.0148,-0.28092 34.015747,34.015747 0 0 0 0.0148,0.28092 z m 15.07611,26.42658 a 34.015747,34.015747 0 0 0 0.35671,0.2352 34.015747,34.015747 0 0 1 -0.35671,-0.2352 z m -15.11615,-29.1721 34.00467,0.8827 -16.23739,-29.88996 a 34.015747,34.015747 0 0 0 -17.76728,29.00726 z m 17.2407,30.48073 a 34.015747,34.015747 0 0 0 0.32967,0.18543 34.015747,34.015747 0 0 1 -0.32967,-0.18543 z m 0.33855,0.1895 a 34.015747,34.015747 0 0 0 0.35257,0.19077 34.015747,34.015747 0 0 1 -0.35257,-0.19077 z m 0.86246,0.45835 a 34.015747,34.015747 0 0 0 0.32643,0.16719 34.015747,34.015747 0 0 1 -0.32643,-0.16719 z m 2.30108,1.07714 a 34.015747,34.015747 0 0 0 0.37057,0.15433 34.015747,34.015747 0 0 1 -0.37057,-0.15433 z m 3.67161,1.31283 a 34.015747,34.015747 0 0 0 0.30802,0.0883 34.015747,34.015747 0 0 1 -0.30802,-0.0883 z m 0.30802,0.0883 a 34.015747,34.015747 0 0 0 0.47286,0.12987 34.015747,34.015747 0 0 1 -0.47286,-0.12987 z m 1.50245,0.38851 a 34.015747,34.015747 0 0 0 0.37177,0.087 34.015747,34.015747 0 0 1 -0.37177,-0.087 z m 6.2872,0.86994 a 34.015747,34.015747 0 0 0 0.42879,0.016 34.015747,34.015747 0 0 1 -0.42879,-0.016 z m 0.99554,0.0282 a 34.015747,34.015747 0 0 0 0.41353,0.004 34.015747,34.015747 0 0 1 -0.41353,-0.004 z m 0.93868,0.001 a 34.015747,34.015747 0 0 0 0.42977,-0.007 34.015747,34.015747 0 0 1 -0.42977,0.007 z m 0.51534,-0.009 a 34.015747,34.015747 0 0 0 0.43119,-0.0164 34.015747,34.015747 0 0 1 -0.43119,0.0164 z m 5.84918,-0.67695 a 34.015747,34.015747 0 0 0 0.41135,-0.0856 34.015747,34.015747 0 0 1 -0.41135,0.0856 z m 0.41135,-0.0856 a 34.015747,34.015747 0 0 0 0.47966,-0.10721 34.015747,34.015747 0 0 1 -0.47966,0.10721 z m 0.47966,-0.10721 a 34.015747,34.015747 0 0 0 0.41698,-0.0998 34.015747,34.015747 0 0 1 -0.41698,0.0998 z m 2.47398,-0.67492 a 34.015747,34.015747 0 0 0 0.35793,-0.11443 34.015747,34.015747 0 0 1 -0.35793,0.11443 z m 0.35793,-0.11443 a 34.015747,34.015747 0 0 0 0.46663,-0.15574 34.015747,34.015747 0 0 1 -0.46663,0.15574 z m 2.85032,-1.07053 a 34.015747,34.015747 0 0 0 0.35566,-0.15542 34.015747,34.015747 0 0 1 -0.35566,0.15542 z m 0.35566,-0.15542 a 34.015747,34.015747 0 0 0 0.44677,-0.20049 34.015747,34.015747 0 0 1 -0.44677,0.20049 z m 0.44677,-0.20049 a 34.015747,34.015747 0 0 0 0.44476,-0.20826 34.015747,34.015747 0 0 1 -0.44476,0.20826 z m 0.44476,-0.20826 a 34.015747,34.015747 0 0 0 0.41701,-0.20207 34.015747,34.015747 0 0 1 -0.41701,0.20207 z m 0.51498,-0.25086 a 34.015747,34.015747 0 0 0 0.30249,-0.15101 34.015747,34.015747 0 0 1 -0.30249,0.15101 z m 2.59327,-1.43323 a 34.015747,34.015747 0 0 0 0.32955,-0.20349 34.015747,34.015747 0 0 1 -0.32955,0.20349 z m 0.32955,-0.20349 a 34.015747,34.015747 0 0 0 0.36359,-0.23086 34.015747,34.015747 0 0 1 -0.36359,0.23086 z m 0.91665,-0.59572 a 34.015747,34.015747 0 0 0 0.31181,-0.2116 34.015747,34.015747 0 0 1 -0.31181,0.2116 z m 0.31181,-0.2116 a 34.015747,34.015747 0 0 0 0.34489,-0.24073 34.015747,34.015747 0 0 1 -0.34489,0.24073 z m 3.13324,-2.44004 a 34.015747,34.015747 0 0 0 0.33003,-0.29263 34.015747,34.015747 0 0 1 -0.33003,0.29263 z m 0.33003,-0.29263 a 34.015747,34.015747 0 0 0 0.32551,-0.29685 34.015747,34.015747 0 0 1 -0.32551,0.29685 z m 1.1466,-1.08076 a 34.015747,34.015747 0 0 0 0.27216,-0.27232 34.015747,34.015747 0 0 1 -0.27216,0.27232 z m 0.27216,-0.27232 a 34.015747,34.015747 0 0 0 0.30746,-0.31372 34.015747,34.015747 0 0 1 -0.30746,0.31372 z m 3.75905,-4.52039 a 34.015747,34.015747 0 0 0 0.27393,-0.39997 34.015747,34.015747 0 0 1 -0.27393,0.39997 z m 0.27972,-0.40978 a 34.015747,34.015747 0 0 0 0.2677,-0.40326 34.015747,34.015747 0 0 1 -0.2677,0.40326 z m 0.84571,-1.31962 a 34.015747,34.015747 0 0 0 0.14725,-0.24447 34.015747,34.015747 0 0 1 -0.14725,0.24447 z m 2.21675,-4.30712 a 34.015747,34.015747 0 0 0 0.13179,-0.31387 34.015747,34.015747 0 0 1 -0.13179,0.31387 z m 1.01122,-2.67203 a 34.015747,34.015747 0 0 0 0.13132,-0.40474 34.015747,34.015747 0 0 1 -0.13132,0.40474 z m 0.6935,-2.37718 a 34.015747,34.015747 0 0 0 0.0951,-0.38953 34.015747,34.015747 0 0 1 -0.0951,0.38953 z m 0.96721,-6.20223 a 34.015747,34.015747 0 0 0 0.028,-0.48863 34.015747,34.015747 0 0 1 -0.028,0.48863 z m 0.0662,-1.96081 a 34.015747,34.015747 0 0 0 -8.7e-4,-0.48853 34.015747,34.015747 0 0 1 8.7e-4,0.48853 z m -0.0575,-2.12704 a 34.015747,34.015747 0 0 0 -0.0197,-0.3227 34.015747,34.015747 0 0 1 0.0197,0.3227 z m -0.5086,-4.21359 a 34.015747,34.015747 0 0 0 -0.0924,-0.48104 34.015747,34.015747 0 0 1 0.0924,0.48104 z m -7.47147,-15.7789 a 34.015747,34.015747 0 0 1 0.28153,0.33828 34.015747,34.015747 0 0 0 -0.28153,-0.33828 z m 1.79998,2.32734 a 34.015747,34.015747 0 0 1 0.21772,0.31072 34.015747,34.015747 0 0 0 -0.21772,-0.31072 z m 3.53595,6.34541 a 34.015747,34.015747 0 0 0 -0.16319,-0.37812 34.015747,34.015747 0 0 1 0.16319,0.37812 z m -0.16319,-0.37812 a 34.015747,34.015747 0 0 0 -0.20048,-0.44677 34.015747,34.015747 0 0 1 0.20048,0.44677 z m -0.20048,-0.44677 a 34.015747,34.015747 0 0 0 -0.20194,-0.43709 34.015747,34.015747 0 0 1 0.20194,0.43709 z m -2.61693,-4.71084 a 34.015747,34.015747 0 0 1 0.13823,0.20941 34.015747,34.015747 0 0 0 -0.13823,-0.20941 z m 0.5297,0.8236 a 34.015747,34.015747 0 0 1 0.18868,0.30647 34.015747,34.015747 0 0 0 -0.18868,-0.30647 z m 0.50748,0.84012 a 34.015747,34.015747 0 0 1 0.23124,0.40116 34.015747,34.015747 0 0 0 -0.23124,-0.40116 z m 0.89554,1.63175 a 34.015747,34.015747 0 0 0 -0.1812,-0.34611 34.015747,34.015747 0 0 1 0.1812,0.34611 z" />
      </g>
    </g>
    <g
       transform="matrix(0.63022116,0,0,0.59662363,-192.8644,94.511429)"
       style="fill:#ffcb00;fill-opacity:1;stroke:none;stroke-width:1.00157;stroke-miterlimit:4;stroke-dasharray:none"
       id="g958">
      <path
         style="fill:#ffcb00;fill-opacity:1;stroke:none;stroke-width:1.00157;stroke-linecap:butt;stroke-linejoin:miter;stroke-miterlimit:4;stroke-dasharray:none;stroke-opacity:1"
         d="m 537.7606,208.57557 c 0.46029,11.2526 3.23767,17.99288 16.05553,27.80013 32.45763,10.82212 64.51134,2.82307 96.15713,1.1584 2.52538,0 10.41397,-9.49216 14.20204,-15.30054 3.78807,-5.80838 5.14014,-16.04749 5.26853,-21.90366 0.17787,-8.11296 -3.87031,-13.10317 -8.55153,-29.36158 -2.69987,-9.37697 -2.11194,-12.15144 -6.15255,-13.16159 -4.04061,-1.01016 -5.67083,-0.85947 -9.63949,3.01216 -7.0164,6.84487 -7.94654,12.42227 -16.53284,12.67481 -8.58629,0.25254 -19.1929,1.26269 -19.1929,1.26269 h -41.92133 c 0,0 -2.0203,1.76777 -6.56599,3.78807 -4.54569,2.02031 -15.65736,7.57615 -18.18274,12.87945 -2.52539,5.3033 -5.2554,9.53572 -4.94386,17.15166 z"
         id="path947"
         sodipodi:nodetypes="sccssssssccsss" />
      <ellipse
         style="fill:#ffcb00;fill-opacity:1;stroke:none;stroke-width:1.00157;stroke-miterlimit:4;stroke-dasharray:none;stroke-opacity:1"
         id="path949"
         cx="587.22821"
         cy="147.35928"
         rx="35.969322"
         ry="33.959373" />
    </g>
    <path
       sodipodi:nodetypes="cscssassascc"
       id="path954"
       d="m 158.7393,182.74884 c 3.48737,2.99119 6.02868,5.43309 4.91411,7.75792 -1.11456,2.32483 -5.99057,3.3263 -5.99057,3.3263 0,0 -4.00039,1.08138 -5.45279,0.52323 -1.45239,-0.55813 -3.00262,-2.01835 -2.47969,-2.86169 0.52294,-0.84334 3.71556,-1.63696 3.58661,-3.18365 -0.20381,-2.44475 -4.61435,-2.3814 -6.43272,-4.12801 -2.75825,-2.64939 -3.62209,-5.75335 -3.29918,-6.44034 0.28937,-0.61562 1.00357,-1.50435 1.8335,-1.67294 1.43245,-0.29098 1.22218,0.82051 4.13734,1.40416 1.2852,0.25731 4.8007,-0.0866 5.64966,-0.31206 2.1724,4.62997 2.1069,4.71124 3.53373,5.58708 z"
       style="fill:#ff8800;fill-opacity:1;stroke:none;stroke-width:0.150642;stroke-linecap:butt;stroke-linejoin:miter;stroke-miterlimit:4;stroke-dasharray:none;stroke-opacity:1" />
    <ellipse
       transform="matrix(0.96396809,0.2660179,-0.29428177,0.9557187,0,0)"
       cx="211.0654"
       cy="126.02864"
       rx="1.8365"
       ry="3.8709164"
       id="path960"
       style="fill:#430000;fill-opacity:1;stroke:none;stroke-width:0.614288;stroke-miterlimit:4;stroke-dasharray:none;stroke-opacity:1" />
    <path
       sodipodi:nodetypes="ccscssc"
       id="path1421"
       d="m -826.99057,192.97969 63.94525,0.38253 c 0,0 -17.66897,-17.64793 -13.38325,-80.50508 C -772.14286,50 -770,11.428571 -770,11.428571 c 0,0 -45.71429,30.714286 -40,68.571429 5.71429,37.85714 16.42857,34.28571 -0.71429,59.28571 -17.14285,25 -16.27628,53.69398 -16.27628,53.69398 z"
       style="fill:none;stroke:#000000;stroke-width:1px;stroke-linecap:butt;stroke-linejoin:miter;stroke-opacity:1" />
    <path
       inkscape:original-d="m -645.99255,35.860415 c -1.85195,3.367176 -4.17634,6.514809 -5.55584,10.101526 -2.00903,5.223473 -4.16499,10.578899 -4.54569,16.162441 -0.15365,2.253537 1.97361,4.064641 3.03046,6.060915 0.45932,0.867607 0.86878,1.786583 1.51523,2.525381 0.35471,0.405387 9.22908,7.645 10.10152,8.081221 0.30117,0.150584 0.74078,-0.202031 1.01016,0 0.48562,0.364215 0.54926,1.120181 1.01015,1.515228 0.74535,0.638877 1.83122,0.821068 2.52538,1.515229 0.2381,0.238095 -0.15058,0.708983 0,1.010153 0.15058,0.301169 0.70898,-0.150585 1.01015,0 0.54294,0.27147 1.01016,0.673435 1.51523,1.010152 1.44488,0.963253 1.69069,3.798724 2.52538,5.050763 0.20883,0.313235 0.74396,0.238878 1.01016,0.505076 1.97117,1.971179 -0.11692,0.271251 0.50507,1.515229 0.42774,0.855485 1.32688,0.890179 1.51523,2.020305 0.11071,0.664272 -0.16333,1.366977 0,2.020305 0.0408,0.163332 0.38603,-0.119047 0.50508,0 0.84779,0.847794 0.29051,1.162059 0.50507,2.020305 0.18261,0.730443 0.8625,1.282003 1.01016,2.020305 0.51953,2.597671 0.91001,12.827191 0,14.647211 -0.21296,0.42592 -0.85957,0.5584 -1.01016,1.01015 -0.29051,0.87154 0.25177,1.51523 -1.01015,1.51523"
       inkscape:path-effect="#path-effect1429"
       id="path1427"
       d="m -645.99255,35.860415 c -4.82089,9.044407 -13.72334,21.074849 -8.01205,30.85259 4.91342,8.411788 16.40627,10.806026 20.51557,18.149142 4.12223,7.366224 6.59577,14.090443 7.22627,24.030663 0.16161,2.5479 -0.48525,6.13097 -2.5572,7.27473"
       style="fill:none;stroke:#000000;stroke-width:1px;stroke-linecap:butt;stroke-linejoin:miter;stroke-opacity:1" />
    <g
       transform="matrix(0.62702096,0,0,0.62702096,635.45047,-56.526695)"
       id="g1630">
      <ellipse
         style="fill:#ffe904;fill-opacity:1;stroke:none;stroke-width:1.55071;stroke-miterlimit:4;stroke-dasharray:none;stroke-opacity:1"
         id="path1417"
         cx="-419.61911"
         cy="119.80003"
         rx="66.022957"
         ry="67.306976" />
      <g
         id="g1597">
        <ellipse
           ry="128.29897"
           rx="124.48038"
           cy="119.80003"
           cx="-419.61911"
           id="path1419"
           style="fill:#ffffff;fill-opacity:0;stroke:none;stroke-width:1.17769;stroke-miterlimit:4;stroke-dasharray:none;stroke-opacity:1" />
        <g
           id="g1566">
          <path
             style="fill:none;fill-opacity:1;stroke:#ff8000;stroke-width:2.64567;stroke-linecap:butt;stroke-linejoin:miter;stroke-miterlimit:4;stroke-dasharray:none;stroke-opacity:1"
             d="m -530.83516,124.75384 c 4.171,-6.61132 12.56805,-7.52693 19.75915,-7.17527 6.98348,0.34151 14.64682,0.8846 20.64695,-3.43133"
             id="path1431"
             inkscape:path-effect="#path-effect1433"
             inkscape:original-d="m -530.83516,124.75384 c 10.05878,-14.19654 27.35751,-1.47259 40.4061,-10.6066" />
          <path
             style="fill:none;fill-opacity:1;stroke:#ff8000;stroke-width:2.64567;stroke-linecap:butt;stroke-linejoin:miter;stroke-miterlimit:4;stroke-dasharray:none;stroke-opacity:1"
             d="m -520.22856,68.690373 c 5.35295,4.974932 8.02579,12.288592 13.73953,16.821309 3.52148,2.793595 8.17471,3.380356 12.52444,3.381742"
             id="path1435"
             inkscape:path-effect="#path-effect1437"
             inkscape:original-d="m -520.22856,68.690373 c 11.20081,11.418093 9.95348,20.203051 26.26397,20.203051" />
          <path
             style="fill:none;fill-opacity:1;stroke:#ff8000;stroke-width:2.64567;stroke-linecap:butt;stroke-linejoin:miter;stroke-miterlimit:4;stroke-dasharray:none;stroke-opacity:1"
             d="m -493.45952,36.870568 c 8.05605,2.513874 11.64341,10.782344 15.16038,17.721371 1.68611,3.32672 3.52703,6.749735 6.5579,9.047671"
             id="path1439"
             inkscape:path-effect="#path-effect1441"
             inkscape:original-d="m -493.45952,36.870568 c 13.11776,4.398699 13.44366,20.56308 21.71828,26.769042" />
          <path
             style="fill:none;fill-opacity:1;stroke:#ff8000;stroke-width:2.64567;stroke-linecap:butt;stroke-linejoin:miter;stroke-miterlimit:4;stroke-dasharray:none;stroke-opacity:1"
             d="m -442.95189,4.0406102 c -5.5886,7.0137418 -3.43479,16.4486398 -0.57663,24.3156238 2.07213,5.703469 6.64074,11.273742 5.62739,17.605707"
             id="path1443"
             inkscape:path-effect="#path-effect1445"
             inkscape:original-d="m -442.95189,4.0406102 c -11.71509,16.0105498 7.72035,33.0227028 5.05076,41.9213308" />
          <path
             style="fill:none;fill-opacity:1;stroke:#ff8000;stroke-width:2.64567;stroke-linecap:butt;stroke-linejoin:miter;stroke-miterlimit:4;stroke-dasharray:none;stroke-opacity:1"
             d="m -368.70568,16.162441 c -5.41888,0.517415 -10.91442,3.925851 -11.84219,9.887671 -0.9369,6.020519 2.88136,13.032774 -1.15769,18.158464 -1.82623,2.317548 -4.92455,2.999633 -7.70825,3.268594"
             id="path1447"
             inkscape:path-effect="#path-effect1449"
             inkscape:original-d="m -368.70568,16.162441 c -25.13958,4.016106 0.70497,29.368084 -20.70813,31.314729" />
          <path
             style="fill:none;fill-opacity:1;stroke:#ff8000;stroke-width:2.64567;stroke-linecap:butt;stroke-linejoin:miter;stroke-miterlimit:4;stroke-dasharray:none;stroke-opacity:1"
             d="m -321.73359,51.51778 c -7.66498,2.826045 -13.83253,9.695313 -14.55222,17.947799 -0.5491,6.296402 -1.93538,14.149411 -9.5337,15.817699 -2.03946,0.447784 -4.13537,0.575868 -6.21865,0.579688"
             id="path1451"
             inkscape:path-effect="#path-effect1453"
             inkscape:original-d="m -321.73359,51.51778 c -26.16274,11.269949 -3.91913,34.345186 -30.30457,34.345186" />
          <path
             style="fill:none;fill-opacity:1;stroke:#ff8000;stroke-width:2.64567;stroke-linecap:butt;stroke-linejoin:miter;stroke-miterlimit:4;stroke-dasharray:none;stroke-opacity:1"
             d="m -417.69808,40.406102 c 0.17001,-5.996755 -2.21616,-11.963156 -0.96725,-17.898304 0.42769,-2.032487 1.51428,-3.884138 2.98756,-5.335205"
             id="path1455"
             inkscape:path-effect="#path-effect1457"
             inkscape:original-d="m -417.69808,40.406102 c -0.0313,-10.184696 -3.92781,-17.285391 2.02031,-23.233509" />
          <path
             style="fill:none;fill-opacity:1;stroke:#ff8000;stroke-width:2.64567;stroke-linecap:butt;stroke-linejoin:miter;stroke-miterlimit:4;stroke-dasharray:none;stroke-opacity:1"
             d="m -364.66507,70.205602 c 4.43338,-0.044 8.61271,-2.858123 10.13651,-7.140891 1.25822,-3.536334 1.08605,-7.353346 0.97517,-11.041855"
             id="path1459"
             inkscape:path-effect="#path-effect1461"
             inkscape:original-d="m -364.66507,70.205602 c 12.85233,-0.820128 11.11168,-14.114176 11.11168,-18.182746" />
          <path
             style="fill:none;fill-opacity:1;stroke:#ff8000;stroke-width:2.64567;stroke-linecap:butt;stroke-linejoin:miter;stroke-miterlimit:4;stroke-dasharray:none;stroke-opacity:1"
             d="m -344.96709,113.64216 c 10.92723,0.99064 20.49598,8.77398 31.85321,6.9956 1.35638,-0.21239 2.69531,-0.5309 4.0072,-0.93468"
             id="path1463"
             inkscape:path-effect="#path-effect1465"
             inkscape:original-d="m -344.96709,113.64216 c 12.87198,1.23991 21.01834,10.62771 35.86041,6.06092" />
          <path
             style="fill:none;fill-opacity:1;stroke:#ff8000;stroke-width:2.64567;stroke-linecap:butt;stroke-linejoin:miter;stroke-miterlimit:4;stroke-dasharray:none;stroke-opacity:1"
             d="m -343.95694,137.38075 c 6.62082,-1.37513 14.32023,0.44391 17.93271,6.71398 2.95227,5.12416 6.81092,10.93585 13.52324,11.24029 1.47281,0.0668 2.94895,-0.0535 4.40446,-0.2766"
             id="path1467"
             inkscape:path-effect="#path-effect1469"
             inkscape:original-d="m -343.95694,137.38075 c 24.43827,-3.66654 14.80178,20.91746 35.86041,17.67767" />
          <path
             style="fill:none;fill-opacity:1;stroke:#ff8000;stroke-width:2.64567;stroke-linecap:butt;stroke-linejoin:miter;stroke-miterlimit:4;stroke-dasharray:none;stroke-opacity:1"
             d="m -356.07877,165.66502 c 8.26582,2.055 11.57246,10.75413 14.6306,17.7662 2.165,4.96418 5.29688,11.2201 11.63336,11.02314"
             id="path1471"
             inkscape:path-effect="#path-effect1473"
             inkscape:original-d="m -356.07877,165.66502 c 15.50365,4.01716 12.57524,28.78934 26.26396,28.78934" />
          <path
             style="fill:none;fill-opacity:1;stroke:#ff8000;stroke-width:2.64567;stroke-linecap:butt;stroke-linejoin:miter;stroke-miterlimit:4;stroke-dasharray:none;stroke-opacity:1"
             d="m -377.79705,176.7767 c 3.6972,6.40842 7.12445,13.08016 12.6269,18.18274"
             id="path1475"
             inkscape:path-effect="#path-effect1477"
             inkscape:original-d="m -377.79705,176.7767 c 5.39059,9.29201 6.64991,12.20575 12.6269,18.18274" />
          <path
             style="fill:none;fill-opacity:1;stroke:#ff8000;stroke-width:2.64567;stroke-linecap:butt;stroke-linejoin:miter;stroke-miterlimit:4;stroke-dasharray:none;stroke-opacity:1"
             d="m -350.52293,155.56349 c 3.36703,0.85878 5.92065,3.35622 7.93954,6.10331 1.37071,1.86511 3.09156,3.49431 5.19244,4.50329"
             id="path1479"
             inkscape:path-effect="#path-effect1481"
             inkscape:original-d="m -350.52293,155.56349 c 7.7651,2.35754 6.76819,7.42471 13.13198,10.6066" />
          <path
             style="fill:none;fill-opacity:1;stroke:#ff8000;stroke-width:2.64567;stroke-linecap:butt;stroke-linejoin:miter;stroke-miterlimit:4;stroke-dasharray:none;stroke-opacity:1"
             d="m -399.51533,195.46452 c -0.9317,7.27372 3.64477,13.57772 8.69951,18.28411 3.86069,3.59463 7.85902,8.45317 5.44262,14.04077"
             id="path1483"
             inkscape:path-effect="#path-effect1485"
             inkscape:original-d="m -399.51533,195.46452 c -1.39048,17.41144 18.80572,19.50001 14.14213,32.32488" />
          <path
             style="fill:none;fill-opacity:1;stroke:#ff8000;stroke-width:2.64567;stroke-linecap:butt;stroke-linejoin:miter;stroke-miterlimit:4;stroke-dasharray:none;stroke-opacity:1"
             d="m -416.18285,196.47467 c -3.48702,4.8451 -5.43548,11.60725 -2.14592,17.00552 2.47312,4.05847 2.85807,9.18866 0.0294,13.35761 -0.586,0.86365 -1.23735,1.68148 -1.92406,2.46683"
             id="path1487"
             inkscape:path-effect="#path-effect1489"
             inkscape:original-d="m -416.18285,196.47467 c -11.53031,17.63147 8.12821,18.92274 -4.04061,32.82996" />
          <path
             style="fill:none;fill-opacity:1;stroke:#ff8000;stroke-width:2.64567;stroke-linecap:butt;stroke-linejoin:miter;stroke-miterlimit:4;stroke-dasharray:none;stroke-opacity:1"
             d="m -437.90113,196.47467 c -3.09015,4.3878 -4.30407,9.89319 -3.36093,15.17315 0.95446,5.34331 -2.33285,9.88946 -6.23552,13.11112"
             id="path1491"
             inkscape:path-effect="#path-effect1493"
             inkscape:original-d="m -437.90113,196.47467 c -8.99761,13.97598 3.23395,17.05767 -9.59645,28.28427" />
          <path
             style="fill:none;fill-opacity:1;stroke:#ff8000;stroke-width:2.64567;stroke-linecap:butt;stroke-linejoin:miter;stroke-miterlimit:4;stroke-dasharray:none;stroke-opacity:1"
             d="m -470.22601,221.22341 c 6.4522,-3.60598 9.89704,-10.50405 11.90958,-17.39255 1.42497,-4.87737 3.59549,-9.79945 7.78839,-12.91203"
             id="path1495"
             inkscape:path-effect="#path-effect1497"
             inkscape:original-d="m -470.22601,221.22341 c 14.57548,-8.98398 8.89975,-21.90596 19.69797,-30.30458" />
          <path
             style="fill:none;fill-opacity:1;stroke:#ff8000;stroke-width:2.64567;stroke-linecap:butt;stroke-linejoin:miter;stroke-miterlimit:4;stroke-dasharray:none;stroke-opacity:1"
             d="m -504.06612,198.49498 c 2.31559,-8.27884 9.97897,-13.08966 17.38308,-16.44762 6.0527,-2.74506 12.23419,-6.23885 15.44688,-12.34173"
             id="path1499"
             inkscape:path-effect="#path-effect1501"
             inkscape:original-d="m -504.06612,198.49498 c 5.97933,-17.9911 24.59565,-13.9676 32.82996,-28.78935" />
          <path
             style="fill:none;fill-opacity:1;stroke:#ff8000;stroke-width:2.64567;stroke-linecap:butt;stroke-linejoin:miter;stroke-miterlimit:4;stroke-dasharray:none;stroke-opacity:1"
             d="m -518.20826,166.17009 c 1.93669,-6.59193 9.22709,-8.60745 15.22669,-9.90304 5.62131,-1.2139 11.62416,-2.34775 16.08804,-6.2594"
             id="path1503"
             inkscape:path-effect="#path-effect1505"
             inkscape:original-d="m -518.20826,166.17009 c 4.15573,-12.50211 21.41209,-7.49762 31.31473,-16.16244" />
          <path
             style="fill:none;fill-opacity:1;stroke:#ff8000;stroke-width:2.64567;stroke-linecap:butt;stroke-linejoin:miter;stroke-miterlimit:4;stroke-dasharray:none;stroke-opacity:1"
             d="m -505.07627,140.91628 c 2.07563,-2.17606 4.96845,-3.6117 8.02357,-3.42683 3.04535,0.18428 5.47085,-1.79341 7.12872,-4.14931"
             id="path1507"
             inkscape:path-effect="#path-effect1509"
             inkscape:original-d="m -505.07627,140.91628 c 7.00755,-6.78922 9.33787,0.1764 15.15229,-7.57614" />
          <path
             style="fill:none;fill-opacity:1;stroke:#ff8000;stroke-width:2.64567;stroke-linecap:butt;stroke-linejoin:miter;stroke-miterlimit:4;stroke-dasharray:none;stroke-opacity:1"
             d="m -472.24631,197.48482 c -0.62095,-6.0986 3.92258,-10.89495 7.57614,-15.15229"
             id="path1511"
             inkscape:path-effect="#path-effect1513"
             inkscape:original-d="m -472.24631,197.48482 c -0.66348,-6.90978 5.23709,-12.14493 7.57614,-15.15229" />
          <path
             style="fill:none;fill-opacity:1;stroke:#ff8000;stroke-width:2.64567;stroke-linecap:butt;stroke-linejoin:miter;stroke-miterlimit:4;stroke-dasharray:none;stroke-opacity:1"
             d="m -497.50013,170.2107 c 4.884,-1.10301 10.07649,-1.88409 14.14214,-5.05076"
             id="path1515"
             inkscape:path-effect="#path-effect1517"
             inkscape:original-d="m -497.50013,170.2107 c 6.1736,-1.36206 10.09442,-2.01497 14.14214,-5.05076" />
          <path
             style="fill:none;fill-opacity:1;stroke:#ff8000;stroke-width:2.64567;stroke-linecap:butt;stroke-linejoin:miter;stroke-miterlimit:4;stroke-dasharray:none;stroke-opacity:1"
             d="m -495.9849,66.164992 c -1.30074,4.537494 1.44194,8.825882 4.33543,12.142685 2.08116,2.385632 4.33326,4.696724 5.7661,7.555289"
             id="path1519"
             inkscape:path-effect="#path-effect1521"
             inkscape:original-d="m -495.9849,66.164992 c -2.08964,8.72845 6.59894,12.6928 10.10153,19.697974" />
          <path
             style="fill:none;fill-opacity:1;stroke:#ff8000;stroke-width:2.64567;stroke-linecap:butt;stroke-linejoin:miter;stroke-miterlimit:4;stroke-dasharray:none;stroke-opacity:1"
             d="m -464.67017,35.355339 c 5.42802,2.853443 8.74768,8.33634 10.80529,13.982873 0.26542,0.728372 0.5242,1.459395 0.81146,2.179568"
             id="path1523"
             inkscape:path-effect="#path-effect1525"
             inkscape:original-d="m -464.67017,35.355339 c 8.30266,4.640027 9.93164,11.949647 11.61675,16.162441" />
          <path
             style="fill:none;fill-opacity:1;stroke:#ff8000;stroke-width:2.64567;stroke-linecap:butt;stroke-linejoin:miter;stroke-miterlimit:4;stroke-dasharray:none;stroke-opacity:1"
             d="m -516.69303,103.54064 c 4.11556,-2.92858 9.36755,-1.92889 14.08452,-1.9476 1.38136,-0.005 2.78866,-0.10453 4.09823,-0.57779"
             id="path1527"
             inkscape:path-effect="#path-effect1529"
             inkscape:original-d="m -516.69303,103.54064 c 5.82521,-4.066357 13.26105,-0.73568 18.18275,-2.52539" />
          <path
             style="fill:none;fill-opacity:1;stroke:#ff8000;stroke-width:2.64567;stroke-linecap:butt;stroke-linejoin:miter;stroke-miterlimit:4;stroke-dasharray:none;stroke-opacity:1"
             d="m -383.35289,192.93914 c 4.55735,5.72404 5.19889,13.186 7.60215,19.83918 1.49294,4.13305 6.09189,5.47984 10.07552,4.90955"
             id="path1531"
             inkscape:path-effect="#path-effect1533"
             inkscape:original-d="m -383.35289,192.93914 c 8.76883,11.75331 3.08161,26.07565 17.67767,24.74873" />
          <path
             style="fill:none;fill-opacity:1;stroke:#ff8000;stroke-width:2.64567;stroke-linecap:butt;stroke-linejoin:miter;stroke-miterlimit:4;stroke-dasharray:none;stroke-opacity:1"
             d="m -362.13969,180.31223 c 2.67905,2.5843 4.12382,6.239 7.32601,8.33424 0.4102,0.2684 0.83184,0.51905 1.26029,0.75713"
             id="path1535"
             inkscape:path-effect="#path-effect1537"
             inkscape:original-d="m -362.13969,180.31223 c 4.14652,4.38974 3.6201,6.33238 8.5863,9.09137" />
        </g>
      </g>
    </g>
  </g>
  <!--vordere Wellen-->
  <g
     inkscape:groupmode="layer"
     id="layer5"
     inkscape:label="vordergrund">
    <path
       sodipodi:type="star"
       style="fill:#199fb1;fill-opacity:1;stroke:none;stroke-width:4;stroke-opacity:0.470238"
       id="path2587"
       sodipodi:sides="20"
       sodipodi:cx="187.53258"
       sodipodi:cy="509.4693"
       sodipodi:r1="287.59988"
       sodipodi:r2="284.05908"
       sodipodi:arg1="0.77424621"
       sodipodi:arg2="0.93132584"
       inkscape:flatsided="true"
       inkscape:rounded="0"
       inkscape:randomized="0"
       d="m 393.15162,710.55263 -72.20188,53.69805 -85.26168,28.75829 -89.97547,1.00344 -85.881842,-26.84962 -73.381496,-52.07445 -53.698059,-72.20188 -28.758282,-85.26168 -1.003444,-89.97547 26.849618,-85.88184 52.074453,-73.3815 72.201877,-53.69806 85.261675,-28.75828 89.97548,-1.00344 85.88184,26.84962 73.38149,52.07445 53.69806,72.20188 28.75828,85.26168 1.00345,89.97547 -26.84962,85.88184 z"
       inkscape:transform-center-x="8.5333331e-06"
       inkscape:transform-center-y="-3.5999999e-06" />
    <path
       sodipodi:type="star"
       style="fill:#a5d1e1;fill-opacity:1;stroke:none;stroke-width:5.50743;stroke-opacity:0.470238"
       id="path2581"
       sodipodi:sides="20"
       sodipodi:cx="187.53259"
       sodipodi:cy="509.4693"
       sodipodi:r1="264.08997"
       sodipodi:r2="260.83859"
       sodipodi:arg1="0.49356387"
       sodipodi:arg2="0.6506435"
       inkscape:flatsided="true"
       inkscape:rounded="0"
       inkscape:randomized="0"
       d="m 420.10342,634.58652 -50.04617,65.74467 -67.91296,47.06177 -79.13195,23.77215 -82.60496,-1.84446 L 62.415373,742.04013 -3.3292935,691.99396 -50.391069,624.081 l -23.772149,-79.13195 1.844459,-82.60496 27.280521,-77.99201 50.0461738,-65.74467 67.9129592,-47.06177 79.131955,-23.77215 82.60495,1.84446 77.99201,27.28052 65.74467,50.04617 47.06177,67.91296 23.77215,79.13195 -1.84446,82.60496 z"
       inkscape:transform-center-y="-5.2666293e-06" />
    <path
       sodipodi:type="star"
       style="fill:#386e72;fill-opacity:1;stroke:none;stroke-width:3.17046;stroke-opacity:0.470238"
       id="path2583"
       sodipodi:sides="20"
       sodipodi:cx="187.53258"
       sodipodi:cy="509.4693"
       sodipodi:r1="194.47557"
       sodipodi:r2="192.08124"
       sodipodi:arg1="0.43636393"
       sodipodi:arg2="0.59344357"
       inkscape:flatsided="true"
       inkscape:rounded="0"
       inkscape:randomized="0"
       d="m 363.7847,591.6638 -34.02589,50.44202 -47.94798,37.45863 -57.1766,20.80853 -60.80837,2.12155 -58.48778,-16.77311 -50.44202,-34.02589 -37.45863,-47.94798 -20.8085323,-57.1766 -2.12155,-60.80836 16.7731043,-58.48779 34.025891,-50.44202 47.947985,-37.45863 57.176602,-20.80853 60.80836,-2.12155 58.48779,16.7731 50.44201,34.02589 37.45864,47.94799 20.80853,57.1766 2.12155,60.80836 z"
       inkscape:transform-center-x="5.9037477e-06"
       inkscape:transform-center-y="-4.9430131e-06" />
   <animateTransform attributeName="transform" type="rotate" from="0 187.53259 509.46929" to="0 187.53259 509.46929" dur="7s" repeatCount="indefinite"/>

  </g>
  <g
     inkscape:groupmode="layer"
     id="layer7"
     inkscape:label="wolken">
    <ellipse
       style="fill:#f2f2f2;fill-opacity:0.585075;stroke:none;stroke-width:30.0586;stroke-opacity:0.470238"
       id="path3280"
       cx="1326.9846"
       cy="-1018.2626"
       rx="840"
       ry="691.97107" />
    <path
       id="path3256"
       style="fill:#ebebeb;fill-opacity:0.641791;stroke:none;stroke-width:15.1181;stroke-opacity:0.470238;"
       d="m 51.147702,-216.90763 a 30.714285,17.142857 0 0 0 -24.685544,7.00781 14.642858,9.4642859 0 0 0 -13.08789,-5.22265 14.642858,9.4642859 0 0 0 -11.455078,3.57031 25.357143,16.785715 0 0 0 -8.902344,-1.07031 25.357143,16.785715 0 0 0 -25.328125,16.00195 18.214285,6.4285712 0 0 0 -5.386719,-0.28711 18.214285,6.4285712 0 0 0 -18.214843,6.42969 18.214285,6.4285712 0 0 0 18.214843,6.42773 18.214285,6.4285712 0 0 0 10.931641,-1.28711 25.357143,16.785715 0 0 0 19.783203,6.28711 25.357143,16.785715 0 0 0 11.666016,-1.88281 27.857143,15 0 0 0 26.548828,10.45508 27.857143,15 0 0 0 27.515622,-12.66602 30.714285,17.142857 0 0 0 23.19727,-16.62109 30.714285,17.142857 0 0 0 -30.71289,-17.14258 30.714285,17.142857 0 0 0 -0.084,0 z" />
    <path
       d="m 178.19168,-182.62192 a 16.538805,9.2309613 0 0 0 -13.2925,3.77351 7.88478,5.09626 0 0 0 -7.04747,-2.81225 7.88478,5.09626 0 0 0 -6.16825,1.92251 13.65413,9.0386501 0 0 0 -4.79366,-0.57633 13.65413,9.0386501 0 0 0 -13.63851,8.61661 9.8078961,3.4616104 0 0 0 -2.9006,-0.1546 9.8078961,3.4616104 0 0 0 -9.8082,3.46221 9.8078961,3.4616104 0 0 0 9.8082,3.46116 9.8078961,3.4616104 0 0 0 5.88639,-0.69307 13.65413,9.0386501 0 0 0 10.65272,3.38544 13.65413,9.0386501 0 0 0 6.28183,-1.01385 15.000312,8.0770912 0 0 0 14.29581,5.62978 15.000312,8.0770912 0 0 0 14.81642,-6.8203 16.538805,9.2309613 0 0 0 12.4911,-8.95001 16.538805,9.2309613 0 0 0 -16.53805,-9.23081 16.538805,9.2309613 0 0 0 -0.0452,0 z"
       style="fill:#ebebeb;fill-opacity:0.689552;stroke:none;stroke-width:8.14069;stroke-opacity:0.470238;"
       id="path3258" />
    <path
       id="path3260"
       style="fill:#f2f2f2;fill-opacity:0.585075;stroke:none;stroke-width:13.3592;stroke-opacity:0.470238;"
       d="m 283.65804,-232.6114 a 28.088458,14.637424 0 0 0 -22.57513,5.98362 13.39101,8.0810779 0 0 0 -11.96898,-4.45937 13.39101,8.0810779 0 0 0 -10.47576,3.04851 23.189309,14.332478 0 0 0 -8.14126,-0.91388 23.189309,14.332478 0 0 0 -23.16278,13.66326 16.657108,5.4890337 0 0 0 -4.92618,-0.24515 16.657108,5.4890337 0 0 0 -16.65763,5.48999 16.657108,5.4890337 0 0 0 16.65763,5.48832 16.657108,5.4890337 0 0 0 9.99707,-1.099 23.189309,14.332478 0 0 0 18.09189,5.36825 23.189309,14.332478 0 0 0 10.66867,-1.60764 25.475579,12.807746 0 0 0 24.27911,8.92706 25.475579,12.807746 0 0 0 25.16326,-10.81487 28.088458,14.637424 0 0 0 21.21409,-14.19192 28.088458,14.637424 0 0 0 -28.08719,-14.63718 28.088458,14.637424 0 0 0 -0.0768,0 z" />
    <path
       id="path3262"
       style="fill:#ebebeb;fill-opacity:0.689552;stroke:none;stroke-width:8.14069;stroke-opacity:0.470238;"
       d="m -3.635774,-262.42397 a 16.538805,9.2309613 0 0 0 -13.2925,3.77351 7.88478,5.09626 0 0 0 -7.04747,-2.81226 7.88478,5.09626 0 0 0 -6.16825,1.92252 13.65413,9.0386501 0 0 0 -4.79366,-0.57633 13.65413,9.0386501 0 0 0 -13.63851,8.61661 9.8078961,3.4616104 0 0 0 -2.9006,-0.1546 9.8078961,3.4616104 0 0 0 -9.808199,3.46221 9.8078961,3.4616104 0 0 0 9.808199,3.46116 9.8078961,3.4616104 0 0 0 5.88639,-0.69307 13.65413,9.0386501 0 0 0 10.65272,3.38544 13.65413,9.0386501 0 0 0 6.28183,-1.01385 15.000312,8.0770912 0 0 0 14.29581,5.62978 15.000312,8.0770912 0 0 0 14.81641997,-6.82031 16.538805,9.2309613 0 0 0 12.49110003,-8.95 16.538805,9.2309613 0 0 0 -16.53805,-9.23081 16.538805,9.2309613 0 0 0 -0.0452,0 z" />
    <path
       id="path3264"
       style="fill:#eeeeee;fill-opacity:0.641791;stroke:none;stroke-width:13.3592;stroke-opacity:0.470238;"
       d="m 149.13773,-243.69335 a 28.088458,14.637424 0 0 0 -22.57513,5.98362 13.39101,8.0810779 0 0 0 -11.96898,-4.45936 13.39101,8.0810779 0 0 0 -10.47576,3.04851 23.189309,14.332478 0 0 0 -8.141258,-0.91389 23.189309,14.332478 0 0 0 -23.16278,13.66327 16.657108,5.4890337 0 0 0 -4.92618,-0.24515 16.657108,5.4890337 0 0 0 -16.65763,5.48999 16.657108,5.4890337 0 0 0 16.65763,5.48831 16.657108,5.4890337 0 0 0 9.99707,-1.09899 23.189309,14.332478 0 0 0 18.09189,5.36824 23.189309,14.332478 0 0 0 10.668668,-1.60764 25.475579,12.807746 0 0 0 24.27911,8.92707 25.475579,12.807746 0 0 0 25.16326,-10.81487 28.088458,14.637424 0 0 0 21.21409,-14.19192 28.088458,14.637424 0 0 0 -28.08719,-14.63719 28.088458,14.637424 0 0 0 -0.0768,0 z" />
    <path
       d="m 323.89412,-203.79232 a 28.088458,14.637424 0 0 0 -22.57513,5.98362 13.39101,8.0810779 0 0 0 -11.96898,-4.45936 13.39101,8.0810779 0 0 0 -10.47576,3.04851 23.189309,14.332478 0 0 0 -8.14126,-0.91389 23.189309,14.332478 0 0 0 -23.16278,13.66326 16.657108,5.4890337 0 0 0 -4.92618,-0.24515 16.657108,5.4890337 0 0 0 -16.65763,5.48999 16.657108,5.4890337 0 0 0 16.65763,5.48832 16.657108,5.4890337 0 0 0 9.99707,-1.099 23.189309,14.332478 0 0 0 18.09189,5.36825 23.189309,14.332478 0 0 0 10.66867,-1.60764 25.475579,12.807746 0 0 0 24.27911,8.92707 25.475579,12.807746 0 0 0 25.16326,-10.81488 28.088458,14.637424 0 0 0 21.21409,-14.19191 28.088458,14.637424 0 0 0 -28.08719,-14.63719 28.088458,14.637424 0 0 0 -0.0768,0 z"
       style="fill:#eeeeee;fill-opacity:0.641791;stroke:none;stroke-width:13.3592;stroke-opacity:0.470238;"
       id="path3266" />
    <path
       id="path3278"
       style="fill:#eeeeee;fill-opacity:0.641791;stroke:none;stroke-width:13.3592;stroke-opacity:0.470238;"
       d="m -101.03347,-236.4787 a 28.088458,14.637424 0 0 0 -22.57513,5.98362 13.39101,8.0810779 0 0 0 -11.96898,-4.45936 13.39101,8.0810779 0 0 0 -10.47576,3.04851 23.189309,14.332478 0 0 0 -8.14126,-0.91389 23.189309,14.332478 0 0 0 -23.16279,13.66326 16.657108,5.4890337 0 0 0 -4.92618,-0.24514 16.657108,5.4890337 0 0 0 -16.65763,5.48998 16.657108,5.4890337 0 0 0 16.65763,5.48832 16.657108,5.4890337 0 0 0 9.99707,-1.099 23.189309,14.332478 0 0 0 18.0919,5.36825 23.189309,14.332478 0 0 0 10.66867,-1.60764 25.475579,12.807746 0 0 0 24.27911,8.92707 25.475579,12.807746 0 0 0 25.163261,-10.81488 28.088458,14.637424 0 0 0 21.214091,-14.19191 28.088458,14.637424 0 0 0 -28.087192,-14.63719 28.088458,14.637424 0 0 0 -0.0768,0 z" />
    <path
       id="path858"
       style="fill:#ebebeb;fill-opacity:0.689552;stroke:none;stroke-width:8.14069;stroke-opacity:0.470238;"
       d="m 252.43789,-283.1321 a 16.538805,9.2309613 0 0 0 -13.2925,3.77352 7.88478,5.09626 0 0 0 -7.04747,-2.81226 7.88478,5.09626 0 0 0 -6.16825,1.92251 13.65413,9.0386501 0 0 0 -4.79366,-0.57633 13.65413,9.0386501 0 0 0 -13.63851,8.61662 9.8078961,3.4616104 0 0 0 -2.9006,-0.15461 9.8078961,3.4616104 0 0 0 -9.8082,3.46222 9.8078961,3.4616104 0 0 0 9.8082,3.46116 9.8078961,3.4616104 0 0 0 5.88639,-0.69308 13.65413,9.0386501 0 0 0 10.65272,3.38544 13.65413,9.0386501 0 0 0 6.28183,-1.01384 15.000312,8.0770912 0 0 0 14.29581,5.62977 15.000312,8.0770912 0 0 0 14.81642,-6.8203 16.538805,9.2309613 0 0 0 12.4911,-8.95001 16.538805,9.2309613 0 0 0 -16.53805,-9.23081 16.538805,9.2309613 0 0 0 -0.0452,0 z" />
    <path
       d="m -491.70944,-218.3362 a 30.714285,17.142857 0 0 0 -24.68555,7.00781 14.642858,9.4642859 0 0 0 -13.08789,-5.22265 14.642858,9.4642859 0 0 0 -11.45507,3.57031 25.357143,16.785715 0 0 0 -8.90235,-1.07031 25.357143,16.785715 0 0 0 -25.32812,16.00195 18.214285,6.4285712 0 0 0 -5.38672,-0.28711 18.214285,6.4285712 0 0 0 -18.21485,6.42969 18.214285,6.4285712 0 0 0 18.21485,6.42773 18.214285,6.4285712 0 0 0 10.93164,-1.28711 25.357143,16.785715 0 0 0 19.7832,6.28711 25.357143,16.785715 0 0 0 11.66602,-1.88281 27.857143,15 0 0 0 26.54883,10.45508 27.857143,15 0 0 0 27.51562,-12.66602 30.714285,17.142857 0 0 0 23.19727,-16.62109 30.714285,17.142857 0 0 0 -30.71289,-17.14258 30.714285,17.142857 0 0 0 -0.084,0 z"
       style="fill:#ebebeb;fill-opacity:0.641791;stroke:none;stroke-width:15.1181;stroke-opacity:0.470238;"
       id="path860" />
    <path
       id="path862"
       style="fill:#ebebeb;fill-opacity:0.689552;stroke:none;stroke-width:8.14069;stroke-opacity:0.470238;"
       d="m -364.66546,-184.05049 a 16.538805,9.2309613 0 0 0 -13.2925,3.77351 7.88478,5.09626 0 0 0 -7.04747,-2.81226 7.88478,5.09626 0 0 0 -6.16825,1.92252 13.65413,9.0386501 0 0 0 -4.79366,-0.57633 13.65413,9.0386501 0 0 0 -13.63851,8.61661 9.8078961,3.4616104 0 0 0 -2.9006,-0.1546 9.8078961,3.4616104 0 0 0 -9.8082,3.46221 9.8078961,3.4616104 0 0 0 9.8082,3.46116 9.8078961,3.4616104 0 0 0 5.88639,-0.69307 13.65413,9.0386501 0 0 0 10.65272,3.38544 13.65413,9.0386501 0 0 0 6.28183,-1.01385 15.000312,8.0770912 0 0 0 14.29581,5.62978 15.000312,8.0770912 0 0 0 14.81642,-6.82031 16.538805,9.2309613 0 0 0 12.4911,-8.95 16.538805,9.2309613 0 0 0 -16.53805,-9.23081 16.538805,9.2309613 0 0 0 -0.0452,0 z" />
    <path
       d="m -259.1991,-234.03997 a 28.088458,14.637424 0 0 0 -22.57513,5.98361 13.39101,8.0810779 0 0 0 -11.96898,-4.45936 13.39101,8.0810779 0 0 0 -10.47576,3.04851 23.189309,14.332478 0 0 0 -8.14126,-0.91389 23.189309,14.332478 0 0 0 -23.16278,13.66327 16.657108,5.4890337 0 0 0 -4.92618,-0.24515 16.657108,5.4890337 0 0 0 -16.65763,5.48999 16.657108,5.4890337 0 0 0 16.65763,5.48832 16.657108,5.4890337 0 0 0 9.99707,-1.099 23.189309,14.332478 0 0 0 18.09189,5.36824 23.189309,14.332478 0 0 0 10.66867,-1.60763 25.475579,12.807746 0 0 0 24.27911,8.92706 25.475579,12.807746 0 0 0 25.16326,-10.81487 28.088458,14.637424 0 0 0 21.21409,-14.19192 28.088458,14.637424 0 0 0 -28.08719,-14.63718 28.088458,14.637424 0 0 0 -0.0768,0 z"
       style="fill:#f2f2f2;fill-opacity:0.585075;stroke:none;stroke-width:13.3592;stroke-opacity:0.470238;"
       id="path864" />
    <path
       d="m -546.49292,-263.85254 a 16.538805,9.2309613 0 0 0 -13.2925,3.77351 7.88478,5.09626 0 0 0 -7.04747,-2.81226 7.88478,5.09626 0 0 0 -6.16825,1.92252 13.65413,9.0386501 0 0 0 -4.79366,-0.57634 13.65413,9.0386501 0 0 0 -13.63851,8.61662 9.8078961,3.4616104 0 0 0 -2.9006,-0.1546 9.8078961,3.4616104 0 0 0 -9.8082,3.46221 9.8078961,3.4616104 0 0 0 9.8082,3.46116 9.8078961,3.4616104 0 0 0 5.88639,-0.69307 13.65413,9.0386501 0 0 0 10.65272,3.38544 13.65413,9.0386501 0 0 0 6.28183,-1.01385 15.000312,8.0770912 0 0 0 14.29581,5.62977 15.000312,8.0770912 0 0 0 14.81642,-6.8203 16.538805,9.2309613 0 0 0 12.4911,-8.95 16.538805,9.2309613 0 0 0 -16.53805,-9.23081 16.538805,9.2309613 0 0 0 -0.0452,0 z"
       style="fill:#ebebeb;fill-opacity:0.689552;stroke:none;stroke-width:8.14069;stroke-opacity:0.470238;"
       id="path866" />
    <path
       d="m -393.71941,-245.12192 a 28.088458,14.637424 0 0 0 -22.57513,5.98362 13.39101,8.0810779 0 0 0 -11.96898,-4.45936 13.39101,8.0810779 0 0 0 -10.47576,3.04851 23.189309,14.332478 0 0 0 -8.14126,-0.91389 23.189309,14.332478 0 0 0 -23.16278,13.66327 16.657108,5.4890337 0 0 0 -4.92618,-0.24515 16.657108,5.4890337 0 0 0 -16.65763,5.48998 16.657108,5.4890337 0 0 0 16.65763,5.48832 16.657108,5.4890337 0 0 0 9.99707,-1.09899 23.189309,14.332478 0 0 0 18.09189,5.36824 23.189309,14.332478 0 0 0 10.66867,-1.60764 25.475579,12.807746 0 0 0 24.27911,8.92707 25.475579,12.807746 0 0 0 25.16326,-10.81487 28.088458,14.637424 0 0 0 21.21409,-14.19192 28.088458,14.637424 0 0 0 -28.08719,-14.63719 28.088458,14.637424 0 0 0 -0.0768,0 z"
       style="fill:#eeeeee;fill-opacity:0.641791;stroke:none;stroke-width:13.3592;stroke-opacity:0.470238;"
       id="path868" />
    <path
       id="path870"
       style="fill:#eeeeee;fill-opacity:0.641791;stroke:none;stroke-width:13.3592;stroke-opacity:0.470238;"
       d="m -218.96302,-205.22089 a 28.088458,14.637424 0 0 0 -22.57513,5.98362 13.39101,8.0810779 0 0 0 -11.96898,-4.45937 13.39101,8.0810779 0 0 0 -10.47576,3.04851 23.189309,14.332478 0 0 0 -8.14126,-0.91388 23.189309,14.332478 0 0 0 -23.16278,13.66326 16.657108,5.4890337 0 0 0 -4.92618,-0.24515 16.657108,5.4890337 0 0 0 -16.65763,5.48999 16.657108,5.4890337 0 0 0 16.65763,5.48832 16.657108,5.4890337 0 0 0 9.99707,-1.099 23.189309,14.332478 0 0 0 18.09189,5.36825 23.189309,14.332478 0 0 0 10.66867,-1.60764 25.475579,12.807746 0 0 0 24.27911,8.92707 25.475579,12.807746 0 0 0 25.16326,-10.81488 28.088458,14.637424 0 0 0 21.21409,-14.19192 28.088458,14.637424 0 0 0 -28.08719,-14.63718 28.088458,14.637424 0 0 0 -0.0768,0 z" />
    <path
       d="m -643.89061,-237.90727 a 28.088458,14.637424 0 0 0 -22.57513,5.98362 13.39101,8.0810779 0 0 0 -11.96898,-4.45936 13.39101,8.0810779 0 0 0 -10.47576,3.04851 23.189309,14.332478 0 0 0 -8.14126,-0.91389 23.189309,14.332478 0 0 0 -23.16279,13.66326 16.657108,5.4890337 0 0 0 -4.92618,-0.24515 16.657108,5.4890337 0 0 0 -16.65763,5.48999 16.657108,5.4890337 0 0 0 16.65763,5.48832 16.657108,5.4890337 0 0 0 9.99707,-1.099 23.189309,14.332478 0 0 0 18.0919,5.36825 23.189309,14.332478 0 0 0 10.66867,-1.60764 25.475579,12.807746 0 0 0 24.27911,8.92707 25.475579,12.807746 0 0 0 25.16326,-10.81488 28.088458,14.637424 0 0 0 21.21409,-14.19191 28.088458,14.637424 0 0 0 -28.08719,-14.63719 28.088458,14.637424 0 0 0 -0.0768,0 z"
       style="fill:#eeeeee;fill-opacity:0.641791;stroke:none;stroke-width:13.3592;stroke-opacity:0.470238;"
       id="path872" />
    <path
       d="m -290.41925,-284.56067 a 16.538805,9.2309613 0 0 0 -13.2925,3.77352 7.88478,5.09626 0 0 0 -7.04747,-2.81226 7.88478,5.09626 0 0 0 -6.16825,1.92251 13.65413,9.0386501 0 0 0 -4.79366,-0.57633 13.65413,9.0386501 0 0 0 -13.63851,8.61661 9.8078961,3.4616104 0 0 0 -2.9006,-0.1546 9.8078961,3.4616104 0 0 0 -9.8082,3.46221 9.8078961,3.4616104 0 0 0 9.8082,3.46116 9.8078961,3.4616104 0 0 0 5.88639,-0.69307 13.65413,9.0386501 0 0 0 10.65272,3.38544 13.65413,9.0386501 0 0 0 6.28183,-1.01385 15.000312,8.0770912 0 0 0 14.29581,5.62978 15.000312,8.0770912 0 0 0 14.81642,-6.8203 16.538805,9.2309613 0 0 0 12.4911,-8.95001 16.538805,9.2309613 0 0 0 -16.53805,-9.23081 16.538805,9.2309613 0 0 0 -0.0452,0 z"
       style="fill:#ebebeb;fill-opacity:0.689552;stroke:none;stroke-width:8.14069;stroke-opacity:0.470238;"
       id="path874" />
  </g>
</svg>
