<svg   xmlns="http://www.w3.org/2000/svg"
   xmlns:xlink="http://www.w3.org/1999/xlink" width="300" height="300"
   >

    <!-- outer circle animation with dashoffset-->
    <g>
        <circle stroke="#012840" cx="150" cy="150" r="130" fill="none" stroke-width="18px" />
        <circle cx="150" cy="150" r="115" fill="#012840" />
        <path stroke="#e7a9bf" stroke-dasharray="820" stroke-dashoffset="820" stroke-width="18px" fill="none"
            d="M150, 150 m0, -130 a130, 130 0 0, 1 0,260 a130, 130 0 0,1 0,-260">
            <animate attributeName="stroke-dashoffset" dur="6s" to="-820" repeatCount="indefinite" />
        </path>
    </g>

    <!--hourglass image-->
    <g>
        <path id="hourglass" d="M150,150 C60,85 240,85 150,150 C60,215 240,215 150,150 Z"
            style="stroke: #D9C6CD; stroke-width:5; fill:#D9C6CD">
            <animateTransform xlink:href="#hourglass" attributeName="transform" type="rotate" dur="3s"
                values="0 150 150; 0 150 150; 180 150 150" repeatCount="indefinite" keytimes=" 0; 0.8; 1"/>
            </path>

        <path id="frame"
            d="M100,97 L200, 97 M100,203 L200,203 M110,97 L110,142 M110,158 L110,200 M190,97 L190,142 M190,158 L190,200 M110,150 L110,150 M190,150 L190,150"
            style="stroke:lightblue; stroke-width:6; stroke-linecap:round">
            <animateTransform xlink:href="#frame" attributeName="transform" type="rotate" dur="3s"
                values="0 150 150; 0 150 150; 180 150 150" repeatCount="indefinite" keytimes=" 0; 0.8; 1"/>
        </path>
    </g>

    <!--the sand-->
    <g>
        <!--upper sand-->
        <polygon id="upper" points="120,125 180,125 150,147" fill="#012840">
            <animate attributeName="points" dur="3s"
                values="120,125 180,125 150,147; 150,150 150,150 150,150; 150,150 150,150 150,150" keytimes="0; 0.8; 1"
                repeatCount="indefinite" />
        </polygon>
        <!--falling sand-->
        <path id="line" stroke-linecap="round" stroke-dasharray="1,4" stroke-dashoffset="200.00" stroke="#012840"
            stroke-width="2" d="M150,150 L150,198">
            <animate attributeName="stroke-dashoffset" from="200" to="1.00" dur="3s" repeatCount="indefinite" />
            <!--making it vanish-->
            <animate attributeName="d" dur="3s" to=""
                values="M150,150 L150,198; M150,150 L150,198; M150,198 L150,198; M150,198 L150,198"
                keytimes="0; 0.65; 0.9; 1" repeatCount="indefinite" />
            <!--last drop-->
            <animate attributeName="stroke" dur="3s" keytimes="0; 0.65; 0.9; 1"
                values="#012840; #012840; transparent; transparent" repeatCount="indefinite" />
        </path>

    </g>

    <g id="lower">
        <path d="M150,180 L180,190 A28,10 0 1,1 120,190 L150,180 Z" stroke="transparent" stroke-width="5"
            fill="#012840">
            <animateTransform attributeName="transform" type="translate" keytimes="0; 0.65; 1" values="0 15; 0 0; 0 0"
                dur="3s" repeatCount="indefinite" />
        </path>
        <animateTransform xlink:href="#lower" attributeName="transform" type="rotate" dur="3s"
            values="0 150 150; 0 150 150; 180 150 150" repeatCount="indefinite" keytimes=" 0; 0.8; 1" />
    </g>

    <!--lower hourglass and frame overlay so you don't see the sand outside-->
    <g>
        <path d="M150,150 C60,85 240,85 150,150 C60,215 240,215 150,150 Z"
            style="stroke: #D9C6CD; stroke-width:5; fill:none">
            <animateTransform attributeName="transform" type="rotate" dur="3s"
                values="0 150 150; 0 150 150; 180 150 150" repeatCount="indefinite" keytimes=" 0; 0.8; 1" />
        </path>

        <path
            d="M100,97 L200, 97 M100,203 L200,203 M110,97 L110,142 M110,158 L110,200 M190,97 L190,142 M190,158 L190,200 M110,150 L110,150 M190,150 L190,150"
            style="stroke:#e7a9bf; stroke-width:6; stroke-linecap:round">

            <animateTransform attributeName="transform" type="rotate" dur="3s"
                values="0 150 150; 0 150 150; 180 150 150" repeatCount="indefinite" keytimes=" 0; 0.8; 1" />
        </path>
    </g>

</svg>